<svg version="1.1"
     baseProfile="full"
     xmlns="http://www.w3.org/2000/svg"
>

    <symbol id="logo" viewBox="0 0 170 64" fill="none">
        <path d="M34.5615 41.1423C34.2176 41.1423 34.0456 40.9703 34.0456 40.6264V25.382H27.8292C27.4853 25.382 27.3134 25.21 27.3134 24.8661V23.4474C27.3134 23.1035 27.4853 22.9315 27.8292 22.9315H42.8157C43.1596 22.9315 43.3316 23.1035 43.3316 23.4474V24.8661C43.3316 25.21 43.1596 25.382 42.8157 25.382H36.5993V40.6264C36.5993 40.9703 36.4273 41.1423 36.0834 41.1423H34.5615ZM50.2773 41.1423C48.2138 41.1423 46.8036 40.6951 46.047 39.801C45.3076 38.9068 44.9379 37.4451 44.9379 35.4159V32.2948C44.9379 30.3173 45.3076 28.8814 46.047 27.9872C46.8036 27.093 48.2138 26.6459 50.2773 26.6459H54.5591C56.6227 26.6459 58.0241 27.093 58.7636 27.9872C59.5202 28.8814 59.8985 30.3173 59.8985 32.2948V35.4159C59.8985 37.4451 59.5202 38.9068 58.7636 39.801C58.0241 40.6951 56.6227 41.1423 54.5591 41.1423H50.2773ZM50.3289 38.8466H54.5075C55.7113 38.8466 56.5022 38.6402 56.8806 38.2275C57.2761 37.8148 57.4739 36.9464 57.4739 35.6223V32.1143C57.4739 30.8246 57.2761 29.9733 56.8806 29.5606C56.5022 29.1479 55.7113 28.9416 54.5075 28.9416H50.3289C49.1251 28.9416 48.3255 29.1479 47.93 29.5606C47.5517 29.9733 47.3626 30.8246 47.3626 32.1143V35.6223C47.3626 36.9464 47.5517 37.8148 47.93 38.2275C48.3255 38.6402 49.1251 38.8466 50.3289 38.8466ZM74.3154 27.1876C74.3154 26.8436 74.4874 26.6717 74.8314 26.6717H76.2242C76.5681 26.6717 76.7401 26.8436 76.7401 27.1876V40.6522C76.7401 40.9961 76.5681 41.1681 76.2242 41.1681H74.8314C74.4874 41.1681 74.3154 40.9961 74.3154 40.6522V35.3901C73.748 36.6627 72.3809 37.2989 70.2142 37.2989H67.7896C65.7432 37.2989 64.3417 36.8518 63.5851 35.9576C62.8284 35.0462 62.4502 33.5845 62.4502 31.5726V27.1618C62.4502 26.8178 62.6221 26.6459 62.966 26.6459H64.3589C64.7028 26.6459 64.8748 26.8178 64.8748 27.1618V31.7789C64.8748 33.1031 65.0639 33.9715 65.4423 34.3842C65.8377 34.7797 66.6374 34.9774 67.8411 34.9774H71.3492C72.4497 34.9774 73.2149 34.7711 73.6448 34.3584C74.0919 33.9457 74.3154 33.0858 74.3154 31.7789V27.1876ZM80.2491 41.1423C79.9052 41.1423 79.7332 40.9703 79.7332 40.6264V27.1618C79.7332 26.8178 79.9052 26.6459 80.2491 26.6459H81.6424C81.9858 26.6459 82.1583 26.8178 82.1583 27.1618V32.8107H85.331L90.7736 26.9296C90.9622 26.7404 91.1774 26.6459 91.4184 26.6459H93.2498C93.4731 26.6459 93.6109 26.7146 93.6625 26.8522C93.731 26.9726 93.6883 27.1188 93.5335 27.2907L87.4719 33.8941L93.482 40.4974C93.6367 40.6693 93.6795 40.8241 93.6109 40.9617C93.5593 41.082 93.4215 41.1423 93.1982 41.1423H91.3926C91.1516 41.1423 90.9364 41.0477 90.7478 40.8585L85.331 35.029H82.1583V40.6264C82.1583 40.9703 81.9858 41.1423 81.6424 41.1423H80.2491ZM100.219 41.1423C96.6079 41.1423 94.8023 39.8096 94.8023 37.1441C94.8023 35.7168 95.1376 34.6765 95.8083 34.023C96.4789 33.3696 97.6832 32.9483 99.4195 32.7591L105.816 32.0627C106.367 31.9939 106.642 31.65 106.642 31.0309C106.642 30.2055 106.461 29.6552 106.1 29.3801C105.757 29.0877 105.051 28.9416 103.985 28.9416H96.4789C96.1355 28.9416 95.963 28.7696 95.963 28.4257V27.1618C95.963 26.8178 96.1355 26.6459 96.4789 26.6459H104.037C105.86 26.6459 107.15 26.9812 107.906 27.6519C108.68 28.3225 109.067 29.4059 109.067 30.9019V40.6264C109.067 40.9703 108.895 41.1423 108.551 41.1423H107.158C106.814 41.1423 106.642 40.9703 106.642 40.6264V38.924C106.298 39.715 105.799 40.2824 105.146 40.6264C104.51 40.9703 103.513 41.1423 102.154 41.1423H100.219ZM100.219 38.8982H103.134C104.458 38.8982 105.37 38.6488 105.868 38.1501C106.384 37.6514 106.642 36.783 106.642 35.5449V34.1262L99.8064 34.8485C98.7923 34.9516 98.1128 35.1494 97.7686 35.4417C97.4252 35.7341 97.2527 36.2327 97.2527 36.9378C97.2527 38.2447 98.2418 38.8982 100.219 38.8982ZM123.302 41.1423C121.239 41.1423 119.828 40.6951 119.072 39.801C118.332 38.9068 117.963 37.4451 117.963 35.4159V32.2948C117.963 30.3173 118.332 28.8814 119.072 27.9872C119.828 27.093 121.239 26.6459 123.302 26.6459H126.939C129.003 26.6459 130.404 27.093 131.144 27.9872C131.9 28.8814 132.279 30.3173 132.279 32.2948V34.6163C132.279 34.9603 132.106 35.1322 131.763 35.1322H120.388V35.6223C120.388 36.9464 120.576 37.8148 120.955 38.2275C121.35 38.6402 122.15 38.8466 123.354 38.8466H130.602C130.946 38.8466 131.118 39.0185 131.118 39.3625V40.6264C131.118 40.9703 130.946 41.1423 130.602 41.1423H123.302ZM120.388 32.9397H129.854V32.1143C129.854 30.8246 129.656 29.9733 129.261 29.5606C128.882 29.1479 128.091 28.9416 126.888 28.9416H123.354C122.15 28.9416 121.35 29.1479 120.955 29.5606C120.576 29.9733 120.388 30.8246 120.388 32.1143V32.9397ZM136.915 46.2237C136.571 46.2237 136.4 46.0518 136.4 45.7078V44.4439C136.4 44.1 136.571 43.928 136.915 43.928H143.828C144.998 43.928 145.789 43.6873 146.201 43.2058C146.631 42.7243 146.846 41.8903 146.846 40.7038V38.5886C146.588 39.2937 146.141 39.8096 145.505 40.1363C144.886 40.4458 143.974 40.6006 142.771 40.6006H139.675C137.612 40.6006 136.202 40.1535 135.445 39.2593C134.706 38.3651 134.336 36.9034 134.336 34.8743V32.2948C134.336 30.3173 134.706 28.8814 135.445 27.9872C136.202 27.093 137.612 26.6459 139.675 26.6459H142.771C143.957 26.6459 144.869 26.8093 145.505 27.136C146.141 27.4627 146.588 27.97 146.846 28.6578V27.1618C146.846 26.8178 147.018 26.6459 147.362 26.6459H148.755C149.099 26.6459 149.271 26.8178 149.271 27.1618V40.4974C149.271 42.4062 148.875 43.8335 148.084 44.7792C147.294 45.7423 145.875 46.2237 143.828 46.2237H136.915ZM139.727 38.3049H143.906C144.989 38.3049 145.746 38.0985 146.176 37.6858C146.623 37.2731 146.846 36.4047 146.846 35.0806V32.1143C146.846 30.8246 146.623 29.9733 146.176 29.5606C145.746 29.1479 144.989 28.9416 143.906 28.9416H139.727C138.523 28.9416 137.724 29.1479 137.328 29.5606C136.95 29.9733 136.761 30.8246 136.761 32.1143V35.0806C136.761 36.4047 136.95 37.2731 137.328 37.6858C137.724 38.0985 138.523 38.3049 139.727 38.3049ZM154.318 38.8466H161.05C162.254 38.8466 163.054 38.6402 163.449 38.2275C163.776 37.918 163.939 37.4365 163.939 36.783C163.939 36.1124 163.776 35.6309 163.449 35.3386C163.139 35.0119 162.572 34.814 161.746 34.7453H154.318V38.8466ZM151.893 27.1618C151.893 26.8178 152.065 26.6459 152.409 26.6459H153.802C154.146 26.6459 154.318 26.8178 154.318 27.1618V32.4496H161.05C163.148 32.4496 164.576 32.8967 165.332 33.7909C165.573 34.1004 165.788 34.4787 165.977 34.9258C166.166 35.4589 166.26 36.078 166.26 36.783C166.26 37.5053 166.166 38.133 165.977 38.666C165.805 39.1131 165.59 39.4914 165.332 39.801C164.576 40.6951 163.165 41.1423 161.101 41.1423H152.409C152.065 41.1423 151.893 40.9703 151.893 40.6264V27.1618ZM167.989 41.1423C167.645 41.1423 167.473 40.9703 167.473 40.6264V27.1618C167.473 26.8178 167.645 26.6459 167.989 26.6459H169.381C169.726 26.6459 169.897 26.8178 169.897 27.1618V40.6264C169.897 40.9703 169.726 41.1423 169.381 41.1423H167.989Z"
              fill="white"/>
        <path d="M7.56844 25.9105V42.3696C7.56844 44.2507 10.7141 44.2507 10.7141 42.3696V25.9105C10.7141 23.6531 14.0563 23.465 14.0563 25.9105V42.3696C14.0563 44.2506 17.202 44.2505 17.202 42.3696V24.1234C17.202 21.3018 15.7864 18.5366 10.9107 17.6338V1.19897C10.9107 1.14212 10.8534 1.10314 10.8006 1.12397L7.56844 2.45219C7.56844 2.41908 7.53762 2.46432 7.56844 2.45219V17.6338C2.69271 18.5366 1.08057 21.3959 1.08057 24.2174V42.3696C1.08057 44.2505 4.2262 44.2505 4.2262 42.3696V25.9105C4.2262 23.465 7.56844 23.6531 7.56844 25.9105Z"
              fill="#FF7916"/>
        <path d="M7.56844 2.45219L10.8006 1.12397C10.8534 1.10314 10.9107 1.14212 10.9107 1.19897V17.6338C15.7864 18.5366 17.202 21.3018 17.202 24.1234V42.3696C17.202 44.2505 14.0563 44.2506 14.0563 42.3696V25.9105C14.0563 23.465 10.7141 23.6531 10.7141 25.9105V42.3696C10.7141 44.2507 7.56844 44.2507 7.56844 42.3696V25.9105C7.56844 23.6531 4.2262 23.465 4.2262 25.9105V42.3696C4.2262 44.2505 1.08057 44.2505 1.08057 42.3696V24.2174C1.08057 21.3959 2.69271 18.5366 7.56844 17.6338V2.45219ZM7.56844 2.45219C7.53762 2.46432 7.56844 2.41908 7.56844 2.45219Z"
              stroke="#FF7916"/>
        <path d="M9.14126 63.3091C13.5931 63.3091 17.202 59.7002 17.202 55.2484C17.202 50.7966 13.5931 47.1877 9.14126 47.1877C4.68946 47.1877 1.08057 50.7966 1.08057 55.2484C1.08057 59.7002 4.68946 63.3091 9.14126 63.3091Z"
              fill="#219653"/>
    </symbol>

    <symbol id="clock" viewBox="0 0 20 20" fill="none">
        <path d="M10 0C4.48578 0 0 4.48578 0 10C0 15.5142 4.48578 20 10 20C15.5142 20 20 15.5142 20 10C20 4.48578 15.5142 0 10 0ZM14.7559 15.1724C14.5934 15.3349 14.38 15.4167 14.1667 15.4167C13.9534 15.4167 13.7399 15.3349 13.5776 15.1724L9.41086 11.0059C9.25415 10.8501 9.16672 10.6383 9.16672 10.4167V5C9.16672 4.53918 9.53995 4.16672 10 4.16672C10.4601 4.16672 10.8333 4.53918 10.8333 5V10.0717L14.7559 13.9941C15.0816 14.3201 15.0816 14.8466 14.7559 15.1724Z"
              fill="#FF7916"/>
    </symbol>

    <symbol id="phone" viewBox="0 0 20 20" fill="none">
        <path d="M18.8889 14.413C17.5056 14.413 16.1667 14.1907 14.9222 13.7796C14.5389 13.6574 14.1 13.7463 13.7945 14.0519L11.3501 16.5019C8.20005 14.9019 5.62781 12.3296 4.02781 9.18519L6.47224 6.72962C6.77781 6.42405 6.86667 5.98519 6.74448 5.60186C6.33339 4.35743 6.11115 3.01853 6.11115 1.63519C6.11109 1.01847 5.61667 0.524048 5 0.524048H1.11109C0.5 0.524048 0 1.01847 0 1.63514C0 12.0685 8.45557 20.524 18.8889 20.524C19.5056 20.524 20 20.0296 20 19.413V15.524C20 14.9074 19.5056 14.413 18.8889 14.413Z"
              fill="#FF7916"/>
    </symbol>

    <symbol id="chevron" viewBox="0 0 7 13" fill="none">
        <line y1="-0.5" x2="8.48528" y2="-0.5" transform="matrix(-0.707107 0.707107 0.707107 0.707107 7 1)"
              stroke="white"/>
        <line x1="6.64645" y1="12.3536" x2="0.646446" y2="6.35355" stroke="white"/>
    </symbol>

    <symbol id="inst" viewBox="0 0 40 40" fill="none">
        <path d="M23.8281 20C23.8281 22.1143 22.1142 23.8281 20 23.8281C17.8857 23.8281 16.1719 22.1143 16.1719 20C16.1719 17.8857 17.8857 16.1719 20 16.1719C22.1142 16.1719 23.8281 17.8857 23.8281 20Z"
              fill="#FF7916"/>
        <path d="M28.9529 13.2269C28.7688 12.7282 28.4753 12.2769 28.0938 11.9064C27.7233 11.5249 27.2723 11.2313 26.7733 11.0473C26.3686 10.8901 25.7607 10.7031 24.641 10.6521C23.4298 10.5969 23.0666 10.585 20.0002 10.585C16.9335 10.585 16.5704 10.5966 15.3594 10.6518C14.2397 10.7031 13.6315 10.8901 13.2271 11.0473C12.7282 11.2313 12.2768 11.5249 11.9067 11.9064C11.5252 12.2769 11.2316 12.7279 11.0473 13.2269C10.8901 13.6315 10.703 14.2397 10.6521 15.3594C10.5968 16.5704 10.5849 16.9335 10.5849 20.0002C10.5849 23.0667 10.5968 23.4298 10.6521 24.6411C10.703 25.7607 10.8901 26.3687 11.0473 26.7733C11.2316 27.2723 11.5249 27.7233 11.9063 28.0938C12.2768 28.4753 12.7279 28.7689 13.2268 28.9529C13.6315 29.1104 14.2397 29.2974 15.3594 29.3484C16.5704 29.4036 16.9332 29.4152 19.9999 29.4152C23.0669 29.4152 23.4301 29.4036 24.6407 29.3484C25.7604 29.2974 26.3686 29.1104 26.7733 28.9529C27.7749 28.5665 28.5665 27.7749 28.9529 26.7733C29.11 26.3687 29.2971 25.7607 29.3484 24.6411C29.4036 23.4298 29.4152 23.0667 29.4152 20.0002C29.4152 16.9335 29.4036 16.5704 29.3484 15.3594C29.2974 14.2397 29.1103 13.6315 28.9529 13.2269ZM20.0002 25.8972C16.7431 25.8972 14.1027 23.2571 14.1027 19.9999C14.1027 16.7428 16.7431 14.1027 20.0002 14.1027C23.2571 14.1027 25.8974 16.7428 25.8974 19.9999C25.8974 23.2571 23.2571 25.8972 20.0002 25.8972ZM26.1306 15.2477C25.3695 15.2477 24.7524 14.6307 24.7524 13.8696C24.7524 13.1085 25.3695 12.4914 26.1306 12.4914C26.8917 12.4914 27.5088 13.1085 27.5088 13.8696C27.5085 14.6307 26.8917 15.2477 26.1306 15.2477Z"
              fill="#FF7916"/>
        <path d="M20 0C8.95599 0 0 8.95599 0 20C0 31.044 8.95599 40 20 40C31.044 40 40 31.044 40 20C40 8.95599 31.044 0 20 0ZM31.4151 24.7348C31.3596 25.9573 31.1652 26.792 30.8813 27.5226C30.2847 29.0652 29.0652 30.2847 27.5226 30.8813C26.7923 31.1652 25.9573 31.3593 24.7351 31.4151C23.5104 31.4709 23.1192 31.4844 20.0003 31.4844C16.8811 31.4844 16.4902 31.4709 15.2652 31.4151C14.043 31.3593 13.208 31.1652 12.4777 30.8813C11.7111 30.593 11.0172 30.141 10.4434 29.5566C9.85931 28.9832 9.40735 28.2889 9.11896 27.5226C8.83514 26.7923 8.64075 25.9573 8.58521 24.7351C8.52875 23.5101 8.51562 23.1189 8.51562 20C8.51562 16.8811 8.52875 16.4899 8.5849 15.2652C8.64044 14.0427 8.83453 13.208 9.11835 12.4774C9.40674 11.7111 9.85901 11.0168 10.4434 10.4434C11.0168 9.85901 11.7111 9.40704 12.4774 9.11865C13.208 8.83484 14.0427 8.64075 15.2652 8.5849C16.4899 8.52905 16.8811 8.51562 20 8.51562C23.1189 8.51562 23.5101 8.52905 24.7348 8.58521C25.9573 8.64075 26.792 8.83484 27.5226 9.11835C28.2889 9.40674 28.9832 9.85901 29.5569 10.4434C30.141 11.0172 30.5933 11.7111 30.8813 12.4774C31.1655 13.208 31.3596 14.0427 31.4154 15.2652C31.4713 16.4899 31.4844 16.8811 31.4844 20C31.4844 23.1189 31.4713 23.5101 31.4151 24.7348Z"
              fill="#FF7916"/>
    </symbol>

    <symbol id="wpp" viewBox="0 0 40 39" fill="none">
        <path d="M20 0C8.95599 0 0 8.73209 0 19.5C0 30.2679 8.95599 39 20 39C31.044 39 40 30.2679 40 19.5C40 8.73209 31.044 0 20 0ZM20.4239 30.8535C20.4236 30.8535 20.4242 30.8535 20.4239 30.8535H20.419C18.4155 30.8526 16.4468 30.3628 14.6985 29.4333L8.35297 31.0558L10.0513 25.0097C9.0036 23.2405 8.45245 21.2332 8.45337 19.1769C8.45612 12.7439 13.826 7.51037 20.4239 7.51037C23.6258 7.51156 26.6315 8.72674 28.8913 10.9319C31.1514 13.1373 32.3953 16.0687 32.3941 19.1861C32.3914 25.6193 27.0209 30.8535 20.4239 30.8535Z"
              fill="#FF7916"/>
        <path d="M20.4279 9.48096C14.9399 9.48096 10.4767 13.8308 10.4743 19.1777C10.4736 21.01 10.9998 22.7944 11.9956 24.3383L12.2321 24.7052L11.2268 28.2838L14.9924 27.3209L15.3559 27.531C16.8833 28.4147 18.6344 28.8822 20.4196 28.8828H20.4236C25.9073 28.8828 30.3705 24.5326 30.3729 19.1854C30.3739 16.5941 29.3399 14.1578 27.4616 12.3249C25.5832 10.492 23.085 9.48185 20.4279 9.48096ZM26.2799 23.3469C26.0306 24.0277 24.8358 24.6493 24.2612 24.7332C23.7457 24.8082 23.0939 24.8394 22.3773 24.6177C21.9428 24.4832 21.3858 24.3038 20.672 24.0036C17.6718 22.7408 15.7123 19.7963 15.5628 19.6017C15.4132 19.4071 14.3414 18.0208 14.3414 16.5858C14.3414 15.151 15.1142 14.4455 15.3882 14.1539C15.6626 13.862 15.9866 13.7891 16.1859 13.7891C16.3852 13.7891 16.5848 13.7909 16.759 13.7992C16.9428 13.8082 17.1893 13.7311 17.432 14.2997C17.6813 14.8835 18.2794 16.3183 18.3542 16.4641C18.429 16.6102 18.4787 16.7804 18.3792 16.975C18.2794 17.1696 17.948 17.5894 17.6315 17.972C17.4988 18.1324 17.3258 18.2752 17.5003 18.5671C17.6746 18.8587 18.2752 19.8136 19.1641 20.5866C20.3067 21.5798 21.2705 21.8875 21.5695 22.0335C21.8683 22.1793 22.0429 22.1549 22.2174 21.9606C22.3917 21.7661 22.9651 21.1094 23.1644 20.8175C23.3637 20.5256 23.5632 20.5744 23.8373 20.6717C24.1116 20.7687 25.582 21.4742 25.8811 21.62C26.1801 21.7661 26.3794 21.839 26.4542 21.9606C26.5293 22.0823 26.5293 22.6658 26.2799 23.3469Z"
              fill="#FF7916"/>
    </symbol>

    <symbol id="cart" viewBox="0 0 40 35" fill="none">
        <path d="M38.2374 15.1571H30.814L25.4838 1.31892C25.1611 0.481266 24.1552 0.0406221 23.2366 0.334995C22.3182 0.629289 21.8352 1.54697 22.1579 2.3847L27.0776 15.157H12.9224L17.8421 2.3847C18.1648 1.54697 17.6818 0.629289 16.7634 0.334995C15.8452 0.0406221 14.8389 0.481266 14.5162 1.31892L9.18596 15.1571H1.76264C0.789177 15.1571 0 15.8768 0 16.7648C0 17.6527 0.789177 18.3725 1.76264 18.3725H2.24557L6.56475 32.7507C6.8881 33.8271 7.96065 34.5733 9.18422 34.5733H30.9358C32.1658 34.5733 33.2423 33.8193 33.5597 32.7354L37.7664 18.3724H38.2373C39.2108 18.3725 40 17.6527 40 16.7648C40 15.8769 39.2108 15.1571 38.2374 15.1571ZM14.2245 29.3177C14.2245 30.2056 13.4353 30.9254 12.4618 30.9254C11.4884 30.9254 10.6992 30.2056 10.6992 29.3177V21.1544C10.6992 20.2665 11.4884 19.5467 12.4618 19.5467C13.4353 19.5467 14.2245 20.2665 14.2245 21.1544V29.3177ZM21.7626 29.3177C21.7626 30.2056 20.9734 30.9254 20 30.9254C19.0265 30.9254 18.2373 30.2056 18.2373 29.3177V21.1544C18.2373 20.2665 19.0265 19.5467 20 19.5467C20.9734 19.5467 21.7626 20.2665 21.7626 21.1544V29.3177ZM29.3007 29.3177C29.3007 30.2056 28.5115 30.9254 27.5381 30.9254C26.5646 30.9254 25.7754 30.2056 25.7754 29.3177V21.1544C25.7754 20.2665 26.5646 19.5467 27.5381 19.5467C28.5115 19.5467 29.3007 20.2665 29.3007 21.1544V29.3177Z"
              fill="#FF7916"/>
    </symbol>

    <symbol id="checkmark" viewBox="0 0 102 102" fill="none">
        <path d="M14.9988 87.001C19.6723 91.6743 25.1162 95.3441 31.1799 97.9089C37.4617 100.566 44.13 101.913 50.9999 101.913C57.8697 101.913 64.5382 100.566 70.8199 97.9089C76.8834 95.3441 82.3276 91.6741 87.0012 87.001C91.6745 82.3274 95.3446 76.8834 97.9091 70.8198C100.566 64.538 101.913 57.8695 101.913 50.9999C101.913 44.1298 100.566 37.4615 97.9091 31.1799C95.3446 25.1162 91.6743 19.6723 87.0012 14.9988C82.3276 10.3254 76.8836 6.6554 70.8199 4.09078C64.538 1.43369 57.8697 0.0866699 50.9999 0.0866699C44.13 0.0866699 37.4617 1.43387 31.1799 4.09078C25.1162 6.6554 19.6723 10.3255 14.9988 14.9988C10.3254 19.6721 6.6554 25.1162 4.09061 31.1797C1.43387 37.4615 0.0866699 44.1298 0.0866699 50.9999C0.0866699 57.8697 1.43387 64.538 4.09078 70.8198C6.6554 76.8834 10.3255 82.3274 14.9988 87.001ZM50.9999 7.51924C75.0137 7.51924 94.4804 26.9862 94.4804 50.9999C94.4804 75.0135 75.0137 94.4803 50.9999 94.4803C26.9862 94.4803 7.51924 75.0135 7.51924 50.9999C7.51924 26.9862 26.9862 7.51924 50.9999 7.51924Z"
              fill="#FF7916"/>
        <path d="M51 102C44.1179 102 37.4383 100.65 31.1462 97.989C25.0721 95.4197 19.6187 91.7434 14.9377 87.0624C10.2562 82.3807 6.58001 76.9272 4.01105 70.8535C1.34945 64.561 0 57.8812 0 51C0 44.1186 1.34945 37.4387 4.01088 31.146C6.57983 25.0722 10.2562 19.6189 14.9375 14.9375C19.6187 10.256 25.0722 6.57983 31.146 4.01088C37.4387 1.34945 44.1185 0 50.9998 0C57.8817 0 64.5615 1.34945 70.8535 4.01105C76.9274 6.58001 82.3807 10.2564 87.0623 14.9377C91.744 19.6194 95.4202 25.0728 97.989 31.1462C100.651 37.4389 102 44.1186 102 51C102 57.8812 100.651 64.561 97.989 70.8537C95.4202 76.9272 91.7441 82.3806 87.0623 87.0625C82.3811 91.7434 76.9276 95.4197 70.8535 97.9891C64.5615 100.65 57.8817 102 51 102ZM51 0.173496C44.1419 0.173496 37.485 1.51826 31.2138 4.17067C25.1607 6.73095 19.7258 10.3947 15.0603 15.0601C10.3947 19.7258 6.73095 25.1606 4.17067 31.2135C1.51826 37.4848 0.173496 44.1419 0.173496 51C0.173496 57.8578 1.51826 64.515 4.17067 70.7862C6.73095 76.8393 10.3947 82.274 15.0603 86.9397C19.7256 91.6048 25.1604 95.2685 31.2138 97.8292C37.4843 100.481 44.1414 101.826 51 101.826C57.8586 101.826 64.5155 100.481 70.7862 97.829C76.8394 95.2685 82.2744 91.6048 86.9397 86.9397C91.6055 82.2735 95.2691 76.8388 97.829 70.7862C100.482 64.515 101.826 57.858 101.826 51C101.826 44.1419 100.482 37.4848 97.829 31.2138C95.2692 25.1611 91.6055 19.7263 86.9397 15.0603C82.274 10.3948 76.8391 6.73112 70.7862 4.17084C64.5153 1.51826 57.8583 0.173496 51 0.173496ZM51 94.5671C39.3628 94.5671 28.4219 90.0354 20.1932 81.8066C11.9645 73.5777 7.43257 62.6372 7.43257 51C7.43257 39.3628 11.9643 28.4219 20.1932 20.1932C28.4219 11.9645 39.3628 7.43257 51 7.43257C62.6372 7.43257 73.5779 11.9645 81.8066 20.1932C90.0356 28.4221 94.5673 39.3628 94.5673 51C94.5673 62.6372 90.0356 73.5779 81.8066 81.8066C73.5779 90.0354 62.6371 94.5671 51 94.5671ZM51 7.60606C39.4091 7.60606 28.512 12.1199 20.3159 20.3159C12.1199 28.512 7.60606 39.4091 7.60606 51C7.60606 62.5909 12.1199 73.488 20.3159 81.6838C28.5118 89.8798 39.4091 94.3936 51 94.3936C62.5909 94.3936 73.488 89.8798 81.684 81.6838C89.8799 73.488 94.3938 62.5907 94.3938 51C94.3938 39.4091 89.8799 28.5118 81.684 20.3159C73.4879 12.1197 62.5909 7.60606 51 7.60606Z"
              fill="#FF7916"/>
        <path d="M39.7292 71.5359C40.4261 72.233 41.3713 72.6242 42.357 72.6242C43.3428 72.6242 44.2878 72.2328 44.9848 71.5359L76.8015 39.7193C78.2528 38.268 78.2528 35.9151 76.8015 34.4638C75.3502 33.0125 72.9971 33.0123 71.5458 34.4638L42.357 63.6527L30.4541 51.7497C29.0028 50.2982 26.6499 50.2982 25.1986 51.7497C23.7473 53.201 23.7473 55.5539 25.1986 57.0052L39.7292 71.5359Z"
              fill="#FF7916"/>
        <path d="M42.357 72.7112C41.3412 72.7112 40.3861 72.3156 39.6678 71.5974L25.1372 57.0667C23.6545 55.5838 23.6545 53.1712 25.1372 51.6883C25.8554 50.9699 26.8105 50.5743 27.8264 50.5743C28.8422 50.5743 29.7971 50.9699 30.5155 51.6883L42.3572 63.53L71.4845 34.4024C72.2028 33.684 73.1579 33.2886 74.1737 33.2886C75.1894 33.2886 76.1445 33.6841 76.8629 34.4024C77.5813 35.1207 77.9769 36.0758 77.9769 37.0916C77.9769 38.1074 77.5813 39.0623 76.8629 39.7808L45.0462 71.5974C44.3281 72.3156 43.373 72.7112 42.357 72.7112ZM27.8264 50.748C26.8569 50.748 25.9455 51.1255 25.26 51.8112C23.845 53.2264 23.845 55.5288 25.26 56.9441L39.7906 71.4747C40.4761 72.1602 41.3875 72.5377 42.357 72.5377C43.3267 72.5377 44.238 72.1602 44.9235 71.4747L76.7401 39.6581C77.4256 38.9726 77.8033 38.0611 77.8033 37.0918C77.8033 36.1225 77.4256 35.2107 76.7401 34.5253C76.0546 33.8396 75.143 33.4622 74.1735 33.4622C73.204 33.4622 72.2925 33.8398 71.607 34.5253L42.357 63.7755L30.3927 51.8112C29.7072 51.1255 28.7959 50.748 27.8264 50.748Z"
              fill="#FF7916"/>
    </symbol>

    <symbol id="close" viewBox="0 0 17 17" fill="none">
        <line y1="-0.75" x2="22.4694" y2="-0.75" transform="matrix(-0.7021 0.712078 -0.749414 -0.662101 15.7759 0)"
              stroke="#FF7916" stroke-width="1.5"/>
        <line y1="-0.75" x2="22.4694" y2="-0.75" transform="matrix(0.7021 0.712078 0.749414 -0.662101 1.22412 0)"
              stroke="#FF7916" stroke-width="1.5"/>
    </symbol>

    <symbol id="burger" viewBox="0 0 30 18" fill="none">
        <line x1="1.7685e-10" y1="1" x2="30" y2="1" stroke="#FF7916" stroke-width="2"/>
        <line x1="1.7685e-10" y1="9" x2="30" y2="9" stroke="#FF7916" stroke-width="2"/>
        <line x1="1.7685e-10" y1="17" x2="30" y2="17" stroke="#FF7916" stroke-width="2"/>
    </symbol>
</svg>