<svg version="1.1"
     baseProfile="full"
     xmlns="http://www.w3.org/2000/svg"
>

    <symbol id="phone" viewBox="0 0 20 20">
        <path d="M15.8063 12.3893C15.3968 11.9629 14.903 11.735 14.3796 11.735C13.8604 11.735 13.3623 11.9587 12.9359 12.3851L11.602 13.7147C11.4923 13.6556 11.3825 13.6007 11.277 13.5459C11.1251 13.4699 10.9815 13.3981 10.8591 13.3221C9.60967 12.5286 8.47418 11.4944 7.38513 10.1563C6.85749 9.48935 6.50291 8.92794 6.24542 8.35809C6.59156 8.0415 6.91236 7.71226 7.22473 7.39567C7.34292 7.27748 7.46111 7.15506 7.5793 7.03687C8.46574 6.15043 8.46574 5.00229 7.5793 4.11585L6.42693 2.96348C6.29608 2.83262 6.161 2.69754 6.03437 2.56247C5.7811 2.30076 5.51517 2.03061 5.24079 1.77734C4.83134 1.37211 4.34169 1.15683 3.82671 1.15683C3.31173 1.15683 2.81364 1.37211 2.39153 1.77734C2.38731 1.78156 2.38731 1.78156 2.38308 1.78578L0.947898 3.23363C0.407592 3.77393 0.0994492 4.43243 0.031911 5.19646C-0.0693963 6.42903 0.293621 7.57718 0.572217 8.32854C1.25604 10.1732 2.27756 11.8827 3.80139 13.7147C5.65024 15.9224 7.87478 17.6657 10.4159 18.894C11.3868 19.3542 12.6827 19.8987 14.1305 19.9915C14.2192 19.9958 14.312 20 14.3964 20C15.3715 20 16.1904 19.6496 16.832 18.9531C16.8363 18.9447 16.8447 18.9405 16.8489 18.932C17.0684 18.6661 17.3217 18.4255 17.5876 18.168C17.7691 17.9949 17.9549 17.8134 18.1364 17.6235C18.5543 17.1887 18.7738 16.6822 18.7738 16.163C18.7738 15.6396 18.55 15.1372 18.1237 14.7151L15.8063 12.3893ZM17.3175 16.8341C17.3132 16.8341 17.3132 16.8384 17.3175 16.8341C17.1528 17.0114 16.984 17.1718 16.8025 17.3491C16.5281 17.6108 16.2495 17.8852 15.9878 18.1933C15.5615 18.6492 15.0592 18.8645 14.4007 18.8645C14.3373 18.8645 14.2698 18.8645 14.2065 18.8603C12.9528 18.7801 11.7878 18.2904 10.914 17.8725C8.52484 16.7159 6.42693 15.0739 4.6836 12.9929C3.2442 11.258 2.28178 9.65398 1.64439 7.93175C1.25182 6.88069 1.1083 6.06179 1.17162 5.28932C1.21383 4.79545 1.40378 4.386 1.75413 4.03565L3.19354 2.59624C3.40038 2.40207 3.61988 2.29654 3.83516 2.29654C4.10109 2.29654 4.31637 2.45694 4.45144 2.59202C4.45566 2.59624 4.45988 2.60046 4.4641 2.60468C4.72159 2.84528 4.96642 3.09433 5.22391 3.36026C5.35476 3.49534 5.48984 3.63042 5.62492 3.76971L6.77729 4.92208C7.22473 5.36952 7.22473 5.7832 6.77729 6.23064C6.65487 6.35305 6.53668 6.47546 6.41427 6.59365C6.05969 6.95667 5.722 7.29436 5.35476 7.62361C5.34632 7.63205 5.33788 7.63627 5.33366 7.64472C4.97064 8.00773 5.03818 8.36231 5.11416 8.60291C5.11838 8.61558 5.1226 8.62824 5.12682 8.6409C5.42652 9.36694 5.84864 10.0508 6.49025 10.8654L6.49447 10.8697C7.65951 12.3049 8.88786 13.4235 10.2428 14.2803C10.4159 14.3901 10.5932 14.4787 10.762 14.5632C10.914 14.6391 11.0575 14.7109 11.1799 14.7869C11.1968 14.7953 11.2137 14.808 11.2306 14.8164C11.3741 14.8882 11.5092 14.922 11.6485 14.922C11.9988 14.922 12.2183 14.7025 12.2901 14.6307L13.7337 13.1871C13.8772 13.0436 14.1052 12.8705 14.3711 12.8705C14.6328 12.8705 14.8481 13.0351 14.979 13.1786C14.9832 13.1828 14.9832 13.1828 14.9874 13.1871L17.3132 15.5129C17.748 15.9435 17.748 16.3867 17.3175 16.8341Z"
              fill="#009635"/>
        <path d="M10.8085 4.75747C11.9144 4.9432 12.919 5.46662 13.7211 6.26863C14.5231 7.07065 15.0423 8.07528 15.2322 9.18122C15.2787 9.45981 15.5193 9.65398 15.7936 9.65398C15.8274 9.65398 15.8569 9.64976 15.8907 9.64554C16.2031 9.59489 16.4099 9.29941 16.3593 8.98705C16.1313 7.64894 15.4982 6.42904 14.5315 5.4624C13.5649 4.49576 12.345 3.86258 11.0069 3.63464C10.6945 3.58399 10.4032 3.79083 10.3484 4.09897C10.2935 4.40711 10.4961 4.70681 10.8085 4.75747Z"
              fill="#009635"/>
        <path d="M19.9768 8.82242C19.6011 6.61899 18.5627 4.61395 16.9671 3.01836C15.3715 1.42277 13.3665 0.384369 11.163 0.00868772C10.8549 -0.0461871 10.5636 0.16487 10.5088 0.473013C10.4581 0.785377 10.665 1.07664 10.9773 1.13151C12.9444 1.46498 14.7383 2.39785 16.1651 3.82037C17.5918 5.24712 18.5205 7.0411 18.854 9.00815C18.9004 9.28675 19.141 9.48092 19.4154 9.48092C19.4491 9.48092 19.4787 9.4767 19.5125 9.47248C19.8206 9.42604 20.0317 9.13056 19.9768 8.82242Z"
              fill="#009635"/>
    </symbol>

    <symbol id="customer" viewBox="0 0 68 58">
        <g opacity="0.5">
            <path fill-rule="evenodd" clip-rule="evenodd"
                  d="M32.7857 58C52.234 58 68 43.2342 68 25.0196C68 6.80504 56.4643 0 52.8214 0C45.5357 0 36.1449 8.12167 22.4643 13.6471C12.333 17.7389 0 15.9216 0 25.0196C0 43.2342 13.3374 58 32.7857 58Z"
                  fill="white"/>
        </g>
        <g clip-path="url(#clip0)">
            <path d="M56.4985 28.6802C54.8936 27.3574 52.3569 27.244 50.692 29.0308L46.5588 33.4677C46.0245 31.7503 44.4205 30.4998 42.5298 30.4998H35.154C34.5943 30.4998 34.4069 30.286 33.4347 29.537C29.728 26.3057 24.1606 26.316 20.4651 29.568L17.7541 31.9547C16.5354 31.3097 15.1124 31.2937 13.8871 31.9059L10.7776 33.4602C10.0829 33.808 9.80172 34.6526 10.1485 35.3473L18.5855 52.2213C18.9333 52.9159 19.7779 53.1971 20.4726 52.8503L23.5821 51.2951C25.1148 50.5293 25.9679 48.9655 25.9126 47.3738H42.5297C45.611 47.3738 48.5555 45.902 50.4042 43.4366L57.1548 34.4353C58.4643 32.6906 58.2572 30.1323 56.4985 28.6802ZM22.324 48.7799L20.4725 49.706L13.2927 35.3473L15.1451 34.4211C15.8398 34.0743 16.6834 34.3546 17.0313 35.0502L22.9531 46.8938C23.2999 47.5884 23.0187 48.4321 22.324 48.7799ZM54.9048 32.7478L48.1544 41.7491C46.8335 43.5106 44.7308 44.5614 42.5298 44.5614H24.9311L19.6617 34.0218L22.3231 31.6791C24.9713 29.3495 28.9649 29.3495 31.6131 31.6791C33.173 33.0525 34.1433 33.3122 35.1539 33.3122H42.5297C43.305 33.3122 43.9358 33.9431 43.9358 34.7183C43.9358 35.4935 43.3049 36.1245 42.5297 36.1245H35.3479C34.5717 36.1245 33.9418 36.7545 33.9418 37.5306C33.9418 38.3068 34.5718 38.9368 35.3479 38.9368H43.4718C44.6389 38.9368 45.7639 38.4474 46.5588 37.5934L52.7497 30.9479C53.316 30.3404 54.184 30.391 54.7165 30.8569C55.2733 31.3443 55.3334 32.1778 54.9048 32.7478Z"
                  fill="white"/>
            <path d="M39.5673 14.5969C40.53 13.5873 41.1234 12.2224 41.1234 10.7196C41.1234 7.62416 38.6224 5.00122 35.4988 5.00122C32.3987 5.00122 29.7804 7.61947 29.7804 10.7196C29.7804 12.1764 30.3514 13.5516 31.3882 14.6082C28.8168 16.0499 26.9681 18.8173 26.9681 22.0627V23.4688C26.9681 24.245 27.5981 24.875 28.3743 24.875H42.5297C43.3058 24.875 43.9358 24.245 43.9358 23.4688V22.0627C43.9357 18.881 42.1857 16.0706 39.5673 14.5969ZM35.4988 7.81363C37.0231 7.81363 38.3111 9.14478 38.3111 10.7197C38.3111 12.2702 37.0493 13.532 35.4988 13.532C33.9239 13.532 32.5928 12.244 32.5928 10.7197C32.5928 9.17197 33.9511 7.81363 35.4988 7.81363ZM29.7804 22.0627C29.7804 18.9626 32.3987 16.3443 35.4988 16.3443C38.5999 16.3443 41.1234 18.9091 41.1234 22.0627H29.7804Z"
                  fill="white"/>
        </g>
        <defs>
            <clipPath id="clip0">
                <rect width="48" height="48" fill="white" transform="translate(10 5)"/>
            </clipPath>
        </defs>
    </symbol>

    <symbol id="customer-2" viewBox="0 0 68 58">
        <g opacity="0.5">
            <path fill-rule="evenodd" clip-rule="evenodd"
                  d="M32.7857 58C52.234 58 68 43.2342 68 25.0196C68 6.80504 56.4643 0 52.8214 0C45.5357 0 36.1449 8.12167 22.4643 13.6471C12.333 17.7389 0 15.9216 0 25.0196C0 43.2342 13.3374 58 32.7857 58Z"
                  fill="#009635"/>
        </g>
        <g clip-path="url(#clip0)">
            <path d="M56.4985 28.6802C54.8936 27.3574 52.3569 27.244 50.692 29.0308L46.5588 33.4677C46.0245 31.7503 44.4205 30.4998 42.5298 30.4998H35.154C34.5943 30.4998 34.4069 30.286 33.4347 29.537C29.728 26.3057 24.1606 26.316 20.4651 29.568L17.7541 31.9547C16.5354 31.3097 15.1124 31.2937 13.8871 31.9059L10.7776 33.4602C10.0829 33.808 9.80172 34.6526 10.1485 35.3473L18.5855 52.2213C18.9333 52.9159 19.7779 53.1971 20.4726 52.8503L23.5821 51.2951C25.1148 50.5293 25.9679 48.9655 25.9126 47.3738H42.5297C45.611 47.3738 48.5555 45.902 50.4042 43.4366L57.1548 34.4353C58.4643 32.6906 58.2572 30.1323 56.4985 28.6802ZM22.324 48.7799L20.4725 49.706L13.2927 35.3473L15.1451 34.4211C15.8398 34.0743 16.6834 34.3546 17.0313 35.0502L22.9531 46.8938C23.2999 47.5884 23.0187 48.4321 22.324 48.7799ZM54.9048 32.7478L48.1544 41.7491C46.8335 43.5106 44.7308 44.5614 42.5298 44.5614H24.9311L19.6617 34.0218L22.3231 31.6791C24.9713 29.3495 28.9649 29.3495 31.6131 31.6791C33.173 33.0525 34.1433 33.3122 35.1539 33.3122H42.5297C43.305 33.3122 43.9358 33.9431 43.9358 34.7183C43.9358 35.4935 43.3049 36.1245 42.5297 36.1245H35.3479C34.5717 36.1245 33.9418 36.7545 33.9418 37.5306C33.9418 38.3068 34.5718 38.9368 35.3479 38.9368H43.4718C44.6389 38.9368 45.7639 38.4474 46.5588 37.5934L52.7497 30.9479C53.316 30.3404 54.184 30.391 54.7165 30.8569C55.2733 31.3443 55.3334 32.1778 54.9048 32.7478Z"
                  fill="#003613"/>
            <path d="M39.5673 14.5969C40.53 13.5873 41.1234 12.2224 41.1234 10.7196C41.1234 7.62416 38.6224 5.00122 35.4988 5.00122C32.3987 5.00122 29.7804 7.61947 29.7804 10.7196C29.7804 12.1764 30.3514 13.5516 31.3882 14.6082C28.8168 16.0499 26.9681 18.8173 26.9681 22.0627V23.4688C26.9681 24.245 27.5981 24.875 28.3743 24.875H42.5297C43.3058 24.875 43.9358 24.245 43.9358 23.4688V22.0627C43.9357 18.881 42.1857 16.0706 39.5673 14.5969ZM35.4988 7.81363C37.0231 7.81363 38.3111 9.14478 38.3111 10.7197C38.3111 12.2702 37.0493 13.532 35.4988 13.532C33.9239 13.532 32.5928 12.244 32.5928 10.7197C32.5928 9.17197 33.9511 7.81363 35.4988 7.81363ZM29.7804 22.0627C29.7804 18.9626 32.3987 16.3443 35.4988 16.3443C38.5999 16.3443 41.1234 18.9091 41.1234 22.0627H29.7804Z"
                  fill="#003613"/>
        </g>
        <defs>
            <clipPath id="clip0">
                <rect width="48" height="48" fill="white" transform="translate(10 5)"/>
            </clipPath>
        </defs>
    </symbol>

    <symbol id="efficiency" viewBox="0 0 68 58">
        <g opacity="0.2">
            <path fill-rule="evenodd" clip-rule="evenodd"
                  d="M32.7857 -3.8147e-06C52.234 -3.8147e-06 68 14.7658 68 32.9804C68 51.195 56.4643 58 52.8214 58C45.5357 58 36.1449 49.8783 22.4643 44.3529C12.333 40.2611 0 42.0784 0 32.9804C0 14.7658 13.3374 -3.8147e-06 32.7857 -3.8147e-06Z"
                  fill="white"/>
        </g>
        <g clip-path="url(#clip0)">
            <path d="M56.4516 49.9032H54.0146V28.129C54.0146 27.2739 53.3214 26.5806 52.4663 26.5806H44.3635C43.5084 26.5806 42.8152 27.2739 42.8152 28.129V49.9032H39.5996V34.6349C39.5996 33.7798 38.9064 33.0865 38.0513 33.0865H29.9485C29.0935 33.0865 28.4002 33.7798 28.4002 34.6349V49.9032H25.1846V41.1408C25.1846 40.2857 24.4914 39.5924 23.6363 39.5924H15.5337C14.6786 39.5924 13.9854 40.2857 13.9854 41.1408V49.9032H11.5484C10.6933 49.9032 10 50.5965 10 51.4516C10 52.3067 10.6933 53 11.5484 53H56.4516C57.3067 53 58 52.3067 58 51.4516C58 50.5965 57.3067 49.9032 56.4516 49.9032ZM17.0821 49.9032V42.6892H22.0881V49.9032H17.0821ZM31.497 49.9032V36.1833H36.503V49.9032H31.497ZM45.912 49.9032V29.6774H50.918V49.9032H45.912ZM56.4516 9.35484H53.6452V6.54839C53.6452 5.69329 52.9519 5 52.0968 5H44.7419C43.8868 5 43.1935 5.69329 43.1935 6.54839V9.35484H40.3871C39.532 9.35484 38.8387 10.0481 38.8387 10.9032V22.0323C38.8387 22.8874 39.532 23.5806 40.3871 23.5806H56.4516C57.3067 23.5806 58 22.8874 58 22.0323V10.9032C58 10.0481 57.3067 9.35484 56.4516 9.35484ZM46.2903 8.09677H50.5484V9.35484H46.2903V8.09677ZM54.9032 12.4516V15.8387H41.9355V12.4516H54.9032ZM41.9355 20.4839V18.9355H54.9032V20.4839H41.9355ZM12.1295 30.0061C12.1083 29.1513 12.7843 28.441 13.6392 28.4198C18.6431 28.2961 23.6277 26.6384 27.7551 23.3228C26.1618 22.8509 26.3374 20.5271 27.9863 20.3043L31.5669 19.8204C32.5294 19.6901 33.3742 20.4702 33.3203 21.4408L33.1267 24.9246C33.0338 26.5957 30.7135 26.9403 30.1304 25.3798C25.248 29.4775 18.953 31.5161 13.6767 31.5161C12.8393 31.5161 12.1503 30.8479 12.1295 30.0061Z"
                  fill="white"/>
        </g>
        <defs>
            <clipPath id="clip0">
                <rect width="48" height="48" fill="white" transform="translate(10 5)"/>
            </clipPath>
        </defs>
    </symbol>

    <symbol id="efficiency-2" viewBox="0 0 68 58">
        <g opacity="0.2">
            <path fill-rule="evenodd" clip-rule="evenodd"
                  d="M32.7857 -3.8147e-06C52.234 -3.8147e-06 68 14.7658 68 32.9804C68 51.195 56.4643 58 52.8214 58C45.5357 58 36.1449 49.8783 22.4643 44.3529C12.333 40.2611 0 42.0784 0 32.9804C0 14.7658 13.3374 -3.8147e-06 32.7857 -3.8147e-06Z"
                  fill="#FF6E0A"/>
        </g>
        <g clip-path="url(#clip0)">
            <path d="M56.4516 49.9032H54.0146V28.129C54.0146 27.2739 53.3214 26.5806 52.4663 26.5806H44.3635C43.5084 26.5806 42.8152 27.2739 42.8152 28.129V49.9032H39.5996V34.6349C39.5996 33.7798 38.9064 33.0865 38.0513 33.0865H29.9485C29.0935 33.0865 28.4002 33.7798 28.4002 34.6349V49.9032H25.1846V41.1408C25.1846 40.2857 24.4914 39.5924 23.6363 39.5924H15.5337C14.6786 39.5924 13.9854 40.2857 13.9854 41.1408V49.9032H11.5484C10.6933 49.9032 10 50.5965 10 51.4516C10 52.3067 10.6933 53 11.5484 53H56.4516C57.3067 53 58 52.3067 58 51.4516C58 50.5965 57.3067 49.9032 56.4516 49.9032ZM17.0821 49.9032V42.6892H22.0881V49.9032H17.0821ZM31.497 49.9032V36.1833H36.503V49.9032H31.497ZM45.912 49.9032V29.6774H50.918V49.9032H45.912ZM56.4516 9.35484H53.6452V6.54839C53.6452 5.69329 52.9519 5 52.0968 5H44.7419C43.8868 5 43.1935 5.69329 43.1935 6.54839V9.35484H40.3871C39.532 9.35484 38.8387 10.0481 38.8387 10.9032V22.0323C38.8387 22.8874 39.532 23.5806 40.3871 23.5806H56.4516C57.3067 23.5806 58 22.8874 58 22.0323V10.9032C58 10.0481 57.3067 9.35484 56.4516 9.35484ZM46.2903 8.09677H50.5484V9.35484H46.2903V8.09677ZM54.9032 12.4516V15.8387H41.9355V12.4516H54.9032ZM41.9355 20.4839V18.9355H54.9032V20.4839H41.9355ZM12.1295 30.0061C12.1083 29.1513 12.7843 28.441 13.6392 28.4198C18.6431 28.2961 23.6277 26.6384 27.7551 23.3228C26.1618 22.8509 26.3374 20.5271 27.9863 20.3043L31.5669 19.8204C32.5294 19.6901 33.3742 20.4702 33.3203 21.4408L33.1267 24.9246C33.0338 26.5957 30.7135 26.9403 30.1304 25.3798C25.248 29.4775 18.953 31.5161 13.6767 31.5161C12.8393 31.5161 12.1503 30.8479 12.1295 30.0061Z"
                  fill="#003613"/>
        </g>
        <defs>
            <clipPath id="clip0">
                <rect width="48" height="48" fill="white" transform="translate(10 5)"/>
            </clipPath>
        </defs>
    </symbol>

    <symbol id="customer-group" viewBox="0 0 68 58">
        <g opacity="0.3">
            <path fill-rule="evenodd" clip-rule="evenodd"
                  d="M35.2143 58C15.766 58 0 43.2342 0 25.0196C0 6.80504 11.5357 0 15.1786 0C22.4643 0 31.8551 8.12167 45.5357 13.6471C55.667 17.7389 68 15.9216 68 25.0196C68 43.2342 54.6626 58 35.2143 58Z"
                  fill="white"/>
        </g>
        <path d="M11.4062 53H25.7572C26.5338 53 27.1635 52.3704 27.1635 51.5938V50.027C27.1635 46.776 25.3463 43.9415 22.6744 42.4857C23.6234 41.4782 24.2068 40.1228 24.2068 38.6328C24.2068 35.5312 21.6834 33.0078 18.5818 33.0078C15.4802 33.0078 12.9568 35.5312 12.9568 38.6328C12.9568 40.1228 13.5402 41.4782 14.4891 42.4857C11.8172 43.9415 10 46.776 10 50.027V51.5938C10 52.3704 10.6296 53 11.4062 53ZM15.7693 38.6328C15.7693 37.082 17.031 35.8203 18.5818 35.8203C20.1326 35.8203 21.3943 37.082 21.3943 38.6328C21.3943 40.1836 20.1326 41.4453 18.5818 41.4453C17.031 41.4453 15.7693 40.1836 15.7693 38.6328ZM18.5818 44.2578C21.5946 44.2578 24.351 46.6197 24.351 50.1875H12.8125C12.8125 46.6382 15.5528 44.2578 18.5818 44.2578Z"
              fill="white"/>
        <path d="M53.511 42.4857C54.46 41.4782 55.0434 40.1228 55.0434 38.6328C55.0434 35.5312 52.52 33.0078 49.4184 33.0078C46.3167 33.0078 43.7934 35.5312 43.7934 38.6328C43.7934 40.1228 44.3768 41.4782 45.3257 42.4857C42.6538 43.9415 40.8367 46.7759 40.8367 50.027V51.5938C40.8367 52.3704 41.4663 53 42.2429 53H56.5938C57.3704 53 58 52.3704 58 51.5938V50.027C58 46.776 56.1829 43.9415 53.511 42.4857ZM46.6058 38.6328C46.6058 37.082 47.8675 35.8203 49.4183 35.8203C50.9691 35.8203 52.2308 37.082 52.2308 38.6328C52.2308 40.1836 50.9691 41.4453 49.4183 41.4453C47.8675 41.4453 46.6058 40.1836 46.6058 38.6328ZM55.1875 50.1875H43.6491C43.6491 46.6382 46.3894 44.2578 49.4183 44.2578C52.431 44.2578 55.1875 46.6194 55.1875 50.1875Z"
              fill="white"/>
        <path d="M42.5818 23.5859V22.0192C42.5818 18.7682 40.7646 15.9337 38.0928 14.4778C39.0416 13.4704 39.625 12.115 39.625 10.625C39.625 7.52338 37.1016 5 34 5C30.8984 5 28.375 7.52338 28.375 10.625C28.375 12.115 28.9584 13.4704 29.9074 14.4778C27.2355 15.9337 25.4183 18.7682 25.4183 22.0192V23.5859C25.4183 24.3626 26.048 24.9922 26.8246 24.9922H41.1756C41.9522 24.9922 42.5818 24.3626 42.5818 23.5859ZM31.1875 10.625C31.1875 9.07419 32.4492 7.8125 34 7.8125C35.5508 7.8125 36.8125 9.07419 36.8125 10.625C36.8125 12.1758 35.5508 13.4375 34 13.4375C32.4492 13.4375 31.1875 12.1758 31.1875 10.625ZM39.7693 22.1797H28.2307C28.2307 18.6304 30.9711 16.25 34 16.25C37.0127 16.25 39.7693 18.6116 39.7693 22.1797Z"
              fill="white"/>
        <path d="M39.6812 40.5358C37.8439 41.1394 35.9066 41.4453 33.9232 41.4453C32.0093 41.4453 30.1352 41.1594 28.3529 40.5957C27.6122 40.3618 26.8221 40.772 26.588 41.5124C26.3539 42.2528 26.7643 43.0431 27.5047 43.2772C29.5616 43.9278 31.7211 44.2577 33.9231 44.2577C36.2053 44.2577 38.4379 43.9044 40.5588 43.2078C41.2968 42.9654 41.6984 42.1707 41.456 41.4329C41.2137 40.6951 40.4191 40.2933 39.6812 40.5358Z"
              fill="white"/>
        <path d="M21.0372 16.6541C19.4841 18.1512 18.1639 19.8915 17.113 21.827C16.024 23.8328 15.2691 25.9633 14.8694 28.1596C14.7127 29.0203 15.3732 29.8179 16.2545 29.8179C16.9209 29.8179 17.5129 29.3421 17.6364 28.6632C17.9827 26.7608 18.6382 24.9122 19.5846 23.169C20.4981 21.4869 21.6434 19.9762 22.9891 18.6791C23.5482 18.1401 23.5646 17.2498 23.0256 16.6906C22.4866 16.1315 21.5964 16.1151 21.0372 16.6541Z"
              fill="white"/>
        <path d="M46.9628 16.654C46.4036 16.115 45.5133 16.1315 44.9743 16.6906C44.4354 17.2498 44.4517 18.1401 45.0109 18.679C46.3566 19.9762 47.502 21.4868 48.4153 23.169C49.3619 24.9123 50.0173 26.7608 50.3636 28.6632C50.5025 29.4264 51.2338 29.934 51.9989 29.7949C52.7629 29.6558 53.2696 28.9236 53.1306 28.1596C52.7309 25.9633 51.976 23.8328 50.887 21.827C49.8361 19.8915 48.5158 18.151 46.9628 16.654Z"
              fill="white"/>
    </symbol>

    <symbol id="customer-group2" viewBox="0 0 68 58">
        <g opacity="0.3">
            <path fill-rule="evenodd" clip-rule="evenodd"
                  d="M35.2143 58C15.766 58 0 43.2342 0 25.0196C0 6.80504 11.5357 0 15.1786 0C22.4643 0 31.8551 8.12167 45.5357 13.6471C55.667 17.7389 68 15.9216 68 25.0196C68 43.2342 54.6626 58 35.2143 58Z"
                  fill="#009635"/>
        </g>
        <path d="M11.4062 53H25.7572C26.5338 53 27.1635 52.3704 27.1635 51.5938V50.027C27.1635 46.776 25.3463 43.9415 22.6744 42.4857C23.6234 41.4782 24.2068 40.1228 24.2068 38.6328C24.2068 35.5312 21.6834 33.0078 18.5818 33.0078C15.4802 33.0078 12.9568 35.5312 12.9568 38.6328C12.9568 40.1228 13.5402 41.4782 14.4891 42.4857C11.8172 43.9415 10 46.776 10 50.027V51.5938C10 52.3704 10.6296 53 11.4062 53ZM15.7693 38.6328C15.7693 37.082 17.031 35.8203 18.5818 35.8203C20.1326 35.8203 21.3943 37.082 21.3943 38.6328C21.3943 40.1836 20.1326 41.4453 18.5818 41.4453C17.031 41.4453 15.7693 40.1836 15.7693 38.6328ZM18.5818 44.2578C21.5946 44.2578 24.351 46.6197 24.351 50.1875H12.8125C12.8125 46.6382 15.5528 44.2578 18.5818 44.2578Z"
              fill="#003613"/>
        <path d="M53.511 42.4857C54.4599 41.4782 55.0433 40.1228 55.0433 38.6328C55.0433 35.5312 52.5199 33.0078 49.4183 33.0078C46.3167 33.0078 43.7933 35.5312 43.7933 38.6328C43.7933 40.1228 44.3767 41.4782 45.3257 42.4857C42.6538 43.9415 40.8366 46.7759 40.8366 50.027V51.5938C40.8366 52.3704 41.4662 53 42.2429 53H56.5938C57.3704 53 58 52.3704 58 51.5938V50.027C58 46.776 56.1828 43.9415 53.511 42.4857ZM46.6057 38.6328C46.6057 37.082 47.8674 35.8203 49.4182 35.8203C50.969 35.8203 52.2307 37.082 52.2307 38.6328C52.2307 40.1836 50.969 41.4453 49.4182 41.4453C47.8674 41.4453 46.6057 40.1836 46.6057 38.6328ZM55.1875 50.1875H43.649C43.649 46.6382 46.3893 44.2578 49.4182 44.2578C52.431 44.2578 55.1875 46.6194 55.1875 50.1875Z"
              fill="#003613"/>
        <path d="M42.5818 23.5859V22.0192C42.5818 18.7682 40.7646 15.9337 38.0927 14.4778C39.0416 13.4704 39.625 12.115 39.625 10.625C39.625 7.52338 37.1016 5 34 5C30.8984 5 28.375 7.52338 28.375 10.625C28.375 12.115 28.9584 13.4704 29.9073 14.4778C27.2355 15.9337 25.4183 18.7682 25.4183 22.0192V23.5859C25.4183 24.3626 26.0479 24.9922 26.8246 24.9922H41.1755C41.9522 24.9922 42.5818 24.3626 42.5818 23.5859ZM31.1875 10.625C31.1875 9.07419 32.4492 7.8125 34 7.8125C35.5508 7.8125 36.8125 9.07419 36.8125 10.625C36.8125 12.1758 35.5508 13.4375 34 13.4375C32.4492 13.4375 31.1875 12.1758 31.1875 10.625ZM39.7693 22.1797H28.2307C28.2307 18.6304 30.971 16.25 34 16.25C37.0127 16.25 39.7693 18.6116 39.7693 22.1797Z"
              fill="#003613"/>
        <path d="M39.6811 40.5358C37.8439 41.1394 35.9066 41.4453 33.9232 41.4453C32.0093 41.4453 30.1352 41.1594 28.3529 40.5957C27.6122 40.3618 26.8221 40.772 26.588 41.5124C26.3538 42.2528 26.7643 43.0431 27.5047 43.2772C29.5616 43.9278 31.7211 44.2577 33.9231 44.2577C36.2053 44.2577 38.4378 43.9044 40.5588 43.2078C41.2967 42.9654 41.6984 42.1707 41.456 41.4329C41.2137 40.6951 40.4191 40.2933 39.6811 40.5358Z"
              fill="#003613"/>
        <path d="M21.0372 16.6541C19.4841 18.1512 18.1638 19.8915 17.113 21.827C16.024 23.8328 15.2691 25.9633 14.8694 28.1596C14.7127 29.0203 15.3732 29.8179 16.2545 29.8179C16.9209 29.8179 17.5128 29.3421 17.6364 28.6632C17.9827 26.7608 18.6382 24.9122 19.5846 23.169C20.498 21.4869 21.6434 19.9762 22.9891 18.6791C23.5482 18.1401 23.5646 17.2498 23.0256 16.6906C22.4866 16.1315 21.5964 16.1151 21.0372 16.6541Z"
              fill="#003613"/>
        <path d="M46.9628 16.654C46.4036 16.115 45.5133 16.1315 44.9744 16.6906C44.4354 17.2498 44.4517 18.1401 45.0109 18.679C46.3566 19.9762 47.5021 21.4868 48.4154 23.169C49.3619 24.9123 50.0173 26.7608 50.3636 28.6632C50.5025 29.4264 51.2338 29.934 51.9989 29.7949C52.7629 29.6558 53.2697 28.9236 53.1306 28.1596C52.7309 25.9633 51.976 23.8328 50.887 21.827C49.8362 19.8915 48.5159 18.151 46.9628 16.654Z"
              fill="#003613"/>
    </symbol>

    <symbol id="lamp" viewBox="0 0 68 58">
        <g opacity="0.2">
            <path fill-rule="evenodd" clip-rule="evenodd"
                  d="M35.2143 -3.8147e-06C15.766 -3.8147e-06 0 14.7658 0 32.9804C0 51.195 11.5357 58 15.1786 58C22.4643 58 31.8551 49.8783 45.5357 44.3529C55.667 40.2611 68 42.0784 68 32.9804C68 14.7658 54.6626 -3.8147e-06 35.2143 -3.8147e-06Z"
                  fill="white"/>
        </g>
        <path d="M33.9987 12.1554C33.2868 12.1554 32.7096 12.7326 32.7096 13.4445C32.7096 14.1564 33.2868 14.7335 33.9987 14.7335C38.2641 14.7335 41.7343 18.2032 41.7343 22.4679C41.7343 23.1798 42.3115 23.757 43.0234 23.757C43.7353 23.757 44.3124 23.1798 44.3124 22.4679C44.3124 16.7816 39.6857 12.1554 33.9987 12.1554Z"
              fill="white"/>
        <path d="M30.6773 7.34629C24.8533 8.56325 20.131 13.2403 18.8884 19.1005C17.8392 24.0489 19.1322 29.017 22.4357 32.7308C24.0505 34.546 24.9766 36.9422 24.9766 39.3116V41.8897C24.9766 43.605 26.0995 45.0623 27.6486 45.567C28.1581 48.577 30.7706 50.999 34 50.999C37.2286 50.999 39.8418 48.5777 40.3514 45.567C41.9005 45.0623 43.0235 43.605 43.0235 41.8896V39.3115C43.0235 36.9375 43.9526 34.5701 45.6396 32.6454C48.1089 29.8284 49.4688 26.2139 49.4688 22.4679C49.4688 12.7084 40.5357 5.28671 30.6773 7.34629ZM34 48.421C32.343 48.421 30.8901 47.2808 30.3536 45.7483H37.6464C37.1099 47.2808 35.6571 48.421 34 48.421ZM40.4453 41.8897C40.4453 42.6005 39.8671 43.1788 39.1563 43.1788H28.8438C28.133 43.1788 27.5547 42.6005 27.5547 41.8897V40.6007H40.4453V41.8897ZM43.7008 30.9462C41.903 32.9973 40.7969 35.4705 40.5162 38.0225H27.4841C27.2037 35.4692 26.1005 32.9716 24.3621 31.0173C21.6089 27.9221 20.533 23.7735 21.4105 19.6353C22.4348 14.8044 26.3708 10.88 31.2047 9.87002C39.4567 8.14551 46.8907 14.3426 46.8907 22.4679C46.8907 25.5884 45.7578 28.5994 43.7008 30.9462Z"
              fill="white"/>
        <path d="M15.8672 22.4679H13.2891C12.5772 22.4679 12 23.0451 12 23.757C12 24.4689 12.5772 25.046 13.2891 25.046H15.8672C16.5791 25.046 17.1562 24.4689 17.1562 23.757C17.1562 23.0451 16.5791 22.4679 15.8672 22.4679Z"
              fill="white"/>
        <path d="M16.4011 16.0225L14.5781 14.1995C14.0748 13.6961 13.2586 13.6961 12.7551 14.1995C12.2517 14.7029 12.2517 15.5191 12.7551 16.0225L14.5781 17.8455C15.0815 18.3489 15.8977 18.349 16.4011 17.8455C16.9045 17.3421 16.9045 16.5259 16.4011 16.0225Z"
              fill="white"/>
        <path d="M16.4011 29.6683C15.8977 29.1649 15.0815 29.1649 14.5781 29.6683L12.7551 31.4913C12.2517 31.9947 12.2517 32.8109 12.7551 33.3143C13.2585 33.8177 14.0747 33.8178 14.5781 33.3143L16.4011 31.4913C16.9045 30.9879 16.9045 30.1718 16.4011 29.6683Z"
              fill="white"/>
        <path d="M54.7109 22.4679H52.1328C51.4209 22.4679 50.8438 23.0451 50.8438 23.757C50.8438 24.4689 51.4209 25.046 52.1328 25.046H54.7109C55.4228 25.046 56 24.4689 56 23.757C56 23.0451 55.4228 22.4679 54.7109 22.4679Z"
              fill="white"/>
        <path d="M55.2449 14.1995C54.7415 13.6961 53.9253 13.6961 53.4219 14.1995L51.5989 16.0225C51.0955 16.5259 51.0955 17.3421 51.5989 17.8455C52.1022 18.3488 52.9185 18.3489 53.4219 17.8455L55.2449 16.0225C55.7483 15.5191 55.7483 14.7029 55.2449 14.1995Z"
              fill="white"/>
        <path d="M55.2449 31.4913L53.4219 29.6683C52.9185 29.1649 52.1023 29.1649 51.5989 29.6683C51.0955 30.1718 51.0955 30.9879 51.5989 31.4913L53.4219 33.3143C53.9252 33.8177 54.7415 33.8177 55.2449 33.3143C55.7483 32.8109 55.7483 31.9948 55.2449 31.4913Z"
              fill="white"/>
    </symbol>

    <symbol id="lamp-2" viewBox="0 0 68 58">
        <g opacity="0.2">
            <path fill-rule="evenodd" clip-rule="evenodd"
                  d="M35.2143 -3.8147e-06C15.766 -3.8147e-06 0 14.7658 0 32.9804C0 51.195 11.5357 58 15.1786 58C22.4643 58 31.8551 49.8783 45.5357 44.3529C55.667 40.2611 68 42.0784 68 32.9804C68 14.7658 54.6626 -3.8147e-06 35.2143 -3.8147e-06Z"
                  fill="#FF6E0A"/>
        </g>
        <path d="M33.9987 12.1554C33.2868 12.1554 32.7097 12.7326 32.7097 13.4445C32.7097 14.1564 33.2868 14.7335 33.9987 14.7335C38.2641 14.7335 41.7344 18.2032 41.7344 22.4679C41.7344 23.1798 42.3115 23.757 43.0234 23.757C43.7354 23.757 44.3125 23.1798 44.3125 22.4679C44.3125 16.7816 39.6858 12.1554 33.9987 12.1554Z"
              fill="#003613"/>
        <path d="M30.6772 7.34629C24.8532 8.56325 20.131 13.2403 18.8884 19.1005C17.8392 24.0489 19.1321 29.017 22.4356 32.7308C24.0505 34.546 24.9766 36.9422 24.9766 39.3116V41.8897C24.9766 43.605 26.0995 45.0623 27.6486 45.567C28.1581 48.577 30.7706 50.999 34 50.999C37.2286 50.999 39.8418 48.5777 40.3514 45.567C41.9005 45.0623 43.0234 43.605 43.0234 41.8896V39.3115C43.0234 36.9375 43.9526 34.5701 45.6395 32.6454C48.1089 29.8284 49.4688 26.2139 49.4688 22.4679C49.4688 12.7084 40.5356 5.28671 30.6772 7.34629ZM34 48.421C32.343 48.421 30.8901 47.2808 30.3536 45.7483H37.6463C37.1099 47.2808 35.657 48.421 34 48.421ZM40.4453 41.8897C40.4453 42.6005 39.867 43.1788 39.1562 43.1788H28.8437C28.133 43.1788 27.5547 42.6005 27.5547 41.8897V40.6007H40.4453V41.8897ZM43.7008 30.9462C41.903 32.9973 40.7969 35.4705 40.5162 38.0225H27.484C27.2037 35.4692 26.1005 32.9716 24.3621 31.0173C21.6088 27.9221 20.533 23.7735 21.4105 19.6353C22.4348 14.8044 26.3707 10.88 31.2046 9.87002C39.4567 8.14551 46.8906 14.3426 46.8906 22.4679C46.8906 25.5884 45.7578 28.5994 43.7008 30.9462Z"
              fill="#003613"/>
        <path d="M15.8672 22.4679H13.2891C12.5772 22.4679 12 23.0451 12 23.757C12 24.4689 12.5772 25.046 13.2891 25.046H15.8672C16.5791 25.046 17.1562 24.4689 17.1562 23.757C17.1562 23.0451 16.5791 22.4679 15.8672 22.4679Z"
              fill="#003613"/>
        <path d="M16.4011 16.0225L14.5781 14.1995C14.0748 13.6961 13.2586 13.6961 12.7551 14.1995C12.2517 14.7029 12.2517 15.5191 12.7551 16.0225L14.5781 17.8455C15.0815 18.3489 15.8977 18.349 16.4011 17.8455C16.9046 17.3421 16.9046 16.5259 16.4011 16.0225Z"
              fill="#003613"/>
        <path d="M16.4011 29.6683C15.8977 29.1649 15.0815 29.1649 14.5781 29.6683L12.7551 31.4913C12.2517 31.9947 12.2517 32.8109 12.7551 33.3143C13.2585 33.8177 14.0747 33.8178 14.5781 33.3143L16.4011 31.4913C16.9046 30.9879 16.9046 30.1718 16.4011 29.6683Z"
              fill="#003613"/>
        <path d="M54.7109 22.4679H52.1328C51.4209 22.4679 50.8438 23.0451 50.8438 23.757C50.8438 24.4689 51.4209 25.046 52.1328 25.046H54.7109C55.4228 25.046 56 24.4689 56 23.757C56 23.0451 55.4228 22.4679 54.7109 22.4679Z"
              fill="#003613"/>
        <path d="M55.2449 14.1995C54.7415 13.6961 53.9253 13.6961 53.4219 14.1995L51.5989 16.0225C51.0955 16.5259 51.0955 17.3421 51.5989 17.8455C52.1022 18.3488 52.9185 18.3489 53.4219 17.8455L55.2449 16.0225C55.7483 15.5191 55.7483 14.7029 55.2449 14.1995Z"
              fill="#003613"/>
        <path d="M55.2449 31.4913L53.4219 29.6683C52.9185 29.1649 52.1023 29.1649 51.5989 29.6683C51.0955 30.1718 51.0955 30.9879 51.5989 31.4913L53.4219 33.3143C53.9252 33.8177 54.7415 33.8177 55.2449 33.3143C55.7483 32.8109 55.7483 31.9948 55.2449 31.4913Z"
              fill="#003613"/>
    </symbol>

    <symbol id="dotted-1" viewBox="0 0 134 183">
        <path d="M82.4365 126.012H131.564C132.33 126.012 133 126.721 133 127.532V179.493C133 180.303 132.33 181.012 131.564 181.012H82.4365C81.6703 181.012 81 180.303 81 179.493V127.532C81 126.721 81.6703 126.012 82.4365 126.012Z"
              stroke="#FF6E0A" stroke-opacity="0.4" stroke-width="2" stroke-miterlimit="10"/>
        <path d="M120.18 140.057C120.18 138.896 121.084 138.199 121.987 138.199C123.117 138.199 123.794 139.128 123.794 140.057C123.794 141.218 122.891 141.915 121.987 141.915C121.084 142.147 120.18 141.218 120.18 140.057Z"
              fill="#DDDDDD"/>
        <path d="M90.135 140.057C90.135 138.896 91.0386 138.199 91.9422 138.199C93.0717 138.199 93.7494 139.128 93.7494 140.057C93.7494 141.218 92.8458 141.915 91.9422 141.915C91.0386 142.147 90.135 141.218 90.135 140.057Z"
              fill="#DDDDDD"/>
        <path d="M60.09 140.057C60.09 138.896 60.9936 138.199 61.8972 138.199C63.0267 138.199 63.7044 139.128 63.7044 140.057C63.7044 141.218 62.8008 141.915 61.8972 141.915C60.9936 142.147 60.09 141.218 60.09 140.057Z"
              fill="#DDDDDD"/>
        <path d="M30.045 140.057C30.045 138.896 30.9486 138.199 31.8522 138.199C32.7558 138.199 33.6595 139.128 33.6595 140.057C33.6595 141.218 32.7558 141.915 31.8522 141.915C30.9486 141.915 30.045 141.218 30.045 140.057Z"
              fill="#DDDDDD"/>
        <path d="M0 140.057C0 138.896 0.90361 138.199 1.80722 138.199C2.93673 138.199 3.61444 139.128 3.61444 140.057C3.61444 141.218 2.71083 141.915 1.80722 141.915C0.90361 142.147 0 141.218 0 140.057Z"
              fill="#DDDDDD"/>
        <path d="M120.18 112.417C120.18 111.256 121.084 110.559 121.987 110.559C123.117 110.559 123.794 111.488 123.794 112.417C123.794 113.579 122.891 114.275 121.987 114.275C121.084 114.508 120.18 113.579 120.18 112.417Z"
              fill="#DDDDDD"/>
        <path d="M90.135 112.417C90.135 111.256 91.0386 110.559 91.9422 110.559C93.0717 110.559 93.7494 111.488 93.7494 112.417C93.7494 113.579 92.8458 114.275 91.9422 114.275C91.0386 114.508 90.135 113.579 90.135 112.417Z"
              fill="#DDDDDD"/>
        <path d="M60.09 112.417C60.09 111.256 60.9936 110.559 61.8972 110.559C63.0267 110.559 63.7044 111.488 63.7044 112.417C63.7044 113.579 62.8008 114.275 61.8972 114.275C60.9936 114.508 60.09 113.579 60.09 112.417Z"
              fill="#DDDDDD"/>
        <path d="M30.045 112.417C30.045 111.256 30.9486 110.559 31.8522 110.559C32.7558 110.559 33.6595 111.488 33.6595 112.417C33.6595 113.579 32.7558 114.275 31.8522 114.275C30.9486 114.275 30.045 113.579 30.045 112.417Z"
              fill="#DDDDDD"/>
        <path d="M0 112.417C0 111.256 0.90361 110.559 1.80722 110.559C2.93673 110.559 3.61444 111.488 3.61444 112.417C3.61444 113.579 2.71083 114.275 1.80722 114.275C0.90361 114.508 0 113.579 0 112.417Z"
              fill="#DDDDDD"/>
        <path d="M120.18 84.7774C120.18 83.6161 121.084 82.9193 121.987 82.9193C123.117 82.9193 123.794 83.8484 123.794 84.7774C123.794 85.7065 122.891 86.6356 121.987 86.6356C121.084 86.8678 120.18 85.9388 120.18 84.7774Z"
              fill="#DDDDDD"/>
        <path d="M92.1681 86.6356C93.1662 86.6356 93.9753 85.8037 93.9753 84.7774C93.9753 83.7512 93.1662 82.9193 92.1681 82.9193C91.17 82.9193 90.3608 83.7512 90.3608 84.7774C90.3608 85.8037 91.17 86.6356 92.1681 86.6356Z"
              fill="#DDDDDD"/>
        <path d="M62.1231 86.6356C63.1212 86.6356 63.9304 85.8037 63.9304 84.7774C63.9304 83.7512 63.1212 82.9193 62.1231 82.9193C61.125 82.9193 60.3159 83.7512 60.3159 84.7774C60.3159 85.8037 61.125 86.6356 62.1231 86.6356Z"
              fill="#DDDDDD"/>
        <path d="M30.045 84.7774C30.045 83.6161 30.9486 82.9193 31.8522 82.9193C32.7558 82.9193 33.6595 83.8484 33.6595 84.7774C33.6595 85.7065 32.7558 86.6356 31.8522 86.6356C30.9486 86.6356 30.045 85.9388 30.045 84.7774Z"
              fill="#DDDDDD"/>
        <path d="M0 84.7774C0 83.6161 0.90361 82.9193 1.80722 82.9193C2.93673 82.9193 3.61444 83.8484 3.61444 84.7774C3.61444 85.7065 2.93673 86.8679 1.80722 86.8679C0.90361 86.8679 0 85.9388 0 84.7774Z"
              fill="#DDDDDD"/>
        <path d="M120.18 57.3699C120.18 56.2086 121.084 55.5118 121.987 55.5118C123.117 55.5118 123.794 56.4409 123.794 57.3699C123.794 58.299 122.891 59.2281 121.987 59.2281C121.084 59.2281 120.18 58.299 120.18 57.3699Z"
              fill="#DDDDDD"/>
        <path d="M92.1681 59.2281C93.1662 59.2281 93.9753 58.3961 93.9753 57.3699C93.9753 56.3437 93.1662 55.5118 92.1681 55.5118C91.17 55.5118 90.3608 56.3437 90.3608 57.3699C90.3608 58.3961 91.17 59.2281 92.1681 59.2281Z"
              fill="#DDDDDD"/>
        <path d="M62.1231 59.2281C63.1212 59.2281 63.9304 58.3961 63.9304 57.3699C63.9304 56.3437 63.1212 55.5118 62.1231 55.5118C61.125 55.5118 60.3159 56.3437 60.3159 57.3699C60.3159 58.3961 61.125 59.2281 62.1231 59.2281Z"
              fill="#DDDDDD"/>
        <path d="M30.045 57.3699C30.045 56.2086 30.9486 55.5118 31.8522 55.5118C32.7558 55.5118 33.6595 56.4409 33.6595 57.3699C33.6595 58.299 32.7558 59.2281 31.8522 59.2281C30.9486 59.2281 30.045 58.299 30.045 57.3699Z"
              fill="#DDDDDD"/>
        <path d="M0 57.3699C0 56.2086 0.90361 55.5118 1.80722 55.5118C2.93673 55.5118 3.61444 56.4409 3.61444 57.3699C3.61444 58.299 2.93673 59.2281 1.80722 59.2281C0.90361 59.2281 0 58.299 0 57.3699Z"
              fill="#DDDDDD"/>
        <path d="M120.18 29.7302C120.18 28.5689 121.084 27.8721 121.987 27.8721C123.117 27.8721 123.794 28.8011 123.794 29.7302C123.794 30.6593 122.891 31.5883 121.987 31.5883C121.084 31.5883 120.18 30.6593 120.18 29.7302Z"
              fill="#DDDDDD"/>
        <path d="M92.1681 31.5883C93.1662 31.5883 93.9753 30.7564 93.9753 29.7302C93.9753 28.704 93.1662 27.8721 92.1681 27.8721C91.17 27.8721 90.3608 28.704 90.3608 29.7302C90.3608 30.7564 91.17 31.5883 92.1681 31.5883Z"
              fill="#DDDDDD"/>
        <path d="M62.1231 31.5883C63.1212 31.5883 63.9304 30.7564 63.9304 29.7302C63.9304 28.704 63.1212 27.8721 62.1231 27.8721C61.125 27.8721 60.3159 28.704 60.3159 29.7302C60.3159 30.7564 61.125 31.5883 62.1231 31.5883Z"
              fill="#DDDDDD"/>
        <path d="M30.045 29.7302C30.045 28.5689 30.9486 27.8721 31.8522 27.8721C32.7558 27.8721 33.6595 28.8011 33.6595 29.7302C33.6595 30.6593 32.7558 31.5883 31.8522 31.5883C30.9486 31.5883 30.045 30.6593 30.045 29.7302Z"
              fill="#DDDDDD"/>
        <path d="M0 29.7302C0 28.5689 0.90361 27.8721 1.80722 27.8721C2.93673 27.8721 3.61444 28.8011 3.61444 29.7302C3.61444 30.6593 2.93673 31.5883 1.80722 31.5883C0.90361 31.5883 0 30.6593 0 29.7302Z"
              fill="#DDDDDD"/>
        <path d="M120.18 2.09041C120.18 0.929071 121.084 0.232269 121.987 0.232269C123.117 0.232269 123.794 1.16134 123.794 2.09041C123.794 3.25174 122.891 3.94854 121.987 3.94854C121.084 3.94854 120.18 3.01947 120.18 2.09041Z"
              fill="#DDDDDD"/>
        <path d="M90.135 2.0904C90.135 0.929068 91.0386 0 92.1681 0C93.2976 0 93.9753 0.929069 93.9753 1.85814C93.9753 3.01947 93.0717 3.71627 92.1681 3.71627C91.0386 3.94854 90.135 3.01947 90.135 2.0904Z"
              fill="#DDDDDD"/>
        <path d="M60.09 2.09038C60.09 0.929042 60.9936 0.232241 61.8972 0.232241C63.0267 -2.61217e-05 63.9303 0.929042 63.9303 2.09038C63.9303 3.25171 63.0267 3.94851 62.1231 3.94851C60.9936 3.94851 60.09 3.01945 60.09 2.09038Z"
              fill="#DDDDDD"/>
        <path d="M30.045 2.0904C30.045 0.929068 30.9486 0 32.0781 0C33.2076 0 33.8854 0.929068 33.8854 1.85814C33.8854 3.01947 32.9817 3.71627 32.0781 3.71627C31.1745 3.71627 30.045 3.01947 30.045 2.0904Z"
              fill="#DDDDDD"/>
        <path d="M0 2.0904C0 0.929069 0.90361 0 1.80722 0C2.93673 0 3.84034 0.929069 3.84034 2.0904C3.84034 3.25174 2.93673 3.94854 2.03312 3.94854C0.903609 3.94854 0 3.01947 0 2.0904Z"
              fill="#DDDDDD"/>
    </symbol>

    <symbol id="dotted-2" viewBox="0 0 124 142" fill="none">
        <path d="M120.18 140.057C120.18 138.896 121.084 138.199 121.987 138.199C123.117 138.199 123.794 139.128 123.794 140.057C123.794 141.218 122.891 141.915 121.987 141.915C121.084 142.147 120.18 141.218 120.18 140.057Z"
              fill="#DDDDDD"/>
        <path d="M90.135 140.057C90.135 138.896 91.0386 138.199 91.9422 138.199C93.0717 138.199 93.7494 139.128 93.7494 140.057C93.7494 141.218 92.8458 141.915 91.9422 141.915C91.0386 142.147 90.135 141.218 90.135 140.057Z"
              fill="#DDDDDD"/>
        <path d="M60.09 140.057C60.09 138.896 60.9936 138.199 61.8972 138.199C63.0267 138.199 63.7044 139.128 63.7044 140.057C63.7044 141.218 62.8008 141.915 61.8972 141.915C60.9936 142.147 60.09 141.218 60.09 140.057Z"
              fill="#DDDDDD"/>
        <path d="M30.045 140.057C30.045 138.896 30.9487 138.199 31.8523 138.199C32.7559 138.199 33.6595 139.128 33.6595 140.057C33.6595 141.218 32.7559 141.915 31.8523 141.915C30.9487 141.915 30.045 141.218 30.045 140.057Z"
              fill="#DDDDDD"/>
        <path d="M0 140.057C0 138.896 0.90361 138.199 1.80722 138.199C2.93673 138.199 3.61444 139.128 3.61444 140.057C3.61444 141.218 2.71083 141.915 1.80722 141.915C0.90361 142.147 0 141.218 0 140.057Z"
              fill="#DDDDDD"/>
        <path d="M120.18 112.417C120.18 111.256 121.084 110.559 121.987 110.559C123.117 110.559 123.794 111.488 123.794 112.417C123.794 113.579 122.891 114.275 121.987 114.275C121.084 114.508 120.18 113.579 120.18 112.417Z"
              fill="#DDDDDD"/>
        <path d="M90.135 112.417C90.135 111.256 91.0386 110.559 91.9422 110.559C93.0717 110.559 93.7494 111.488 93.7494 112.417C93.7494 113.579 92.8458 114.275 91.9422 114.275C91.0386 114.508 90.135 113.579 90.135 112.417Z"
              fill="#DDDDDD"/>
        <path d="M60.09 112.417C60.09 111.256 60.9936 110.559 61.8972 110.559C63.0267 110.559 63.7044 111.488 63.7044 112.417C63.7044 113.579 62.8008 114.275 61.8972 114.275C60.9936 114.508 60.09 113.579 60.09 112.417Z"
              fill="#DDDDDD"/>
        <path d="M30.045 112.417C30.045 111.256 30.9487 110.559 31.8523 110.559C32.7559 110.559 33.6595 111.488 33.6595 112.417C33.6595 113.579 32.7559 114.275 31.8523 114.275C30.9487 114.275 30.045 113.579 30.045 112.417Z"
              fill="#DDDDDD"/>
        <path d="M0 112.417C0 111.256 0.90361 110.559 1.80722 110.559C2.93673 110.559 3.61444 111.488 3.61444 112.417C3.61444 113.579 2.71083 114.275 1.80722 114.275C0.90361 114.508 0 113.579 0 112.417Z"
              fill="#DDDDDD"/>
        <path d="M120.18 84.7774C120.18 83.6161 121.084 82.9193 121.987 82.9193C123.117 82.9193 123.794 83.8484 123.794 84.7774C123.794 85.7065 122.891 86.6356 121.987 86.6356C121.084 86.8678 120.18 85.9388 120.18 84.7774Z"
              fill="#DDDDDD"/>
        <path d="M92.1681 86.6356C93.1662 86.6356 93.9753 85.8037 93.9753 84.7774C93.9753 83.7512 93.1662 82.9193 92.1681 82.9193C91.17 82.9193 90.3608 83.7512 90.3608 84.7774C90.3608 85.8037 91.17 86.6356 92.1681 86.6356Z"
              fill="#DDDDDD"/>
        <path d="M62.1231 86.6356C63.1212 86.6356 63.9304 85.8037 63.9304 84.7774C63.9304 83.7512 63.1212 82.9193 62.1231 82.9193C61.125 82.9193 60.3159 83.7512 60.3159 84.7774C60.3159 85.8037 61.125 86.6356 62.1231 86.6356Z"
              fill="#DDDDDD"/>
        <path d="M30.045 84.7774C30.045 83.6161 30.9487 82.9193 31.8523 82.9193C32.7559 82.9193 33.6595 83.8484 33.6595 84.7774C33.6595 85.7065 32.7559 86.6356 31.8523 86.6356C30.9487 86.6356 30.045 85.9388 30.045 84.7774Z"
              fill="#DDDDDD"/>
        <path d="M0 84.7774C0 83.6161 0.90361 82.9193 1.80722 82.9193C2.93673 82.9193 3.61444 83.8484 3.61444 84.7774C3.61444 85.7065 2.93673 86.8679 1.80722 86.8679C0.90361 86.8679 0 85.9388 0 84.7774Z"
              fill="#DDDDDD"/>
        <path d="M120.18 57.37C120.18 56.2086 121.084 55.5118 121.987 55.5118C123.117 55.5118 123.794 56.4409 123.794 57.37C123.794 58.299 122.891 59.2281 121.987 59.2281C121.084 59.2281 120.18 58.299 120.18 57.37Z"
              fill="#DDDDDD"/>
        <path d="M92.1681 59.2281C93.1662 59.2281 93.9753 58.3962 93.9753 57.37C93.9753 56.3438 93.1662 55.5118 92.1681 55.5118C91.17 55.5118 90.3608 56.3438 90.3608 57.37C90.3608 58.3962 91.17 59.2281 92.1681 59.2281Z"
              fill="#DDDDDD"/>
        <path d="M62.1231 59.2281C63.1212 59.2281 63.9304 58.3962 63.9304 57.37C63.9304 56.3438 63.1212 55.5118 62.1231 55.5118C61.125 55.5118 60.3159 56.3438 60.3159 57.37C60.3159 58.3962 61.125 59.2281 62.1231 59.2281Z"
              fill="#DDDDDD"/>
        <path d="M30.045 57.37C30.045 56.2086 30.9487 55.5118 31.8523 55.5118C32.7559 55.5118 33.6595 56.4409 33.6595 57.37C33.6595 58.299 32.7559 59.2281 31.8523 59.2281C30.9487 59.2281 30.045 58.299 30.045 57.37Z"
              fill="#DDDDDD"/>
        <path d="M0 57.37C0 56.2086 0.90361 55.5118 1.80722 55.5118C2.93673 55.5118 3.61444 56.4409 3.61444 57.37C3.61444 58.299 2.93673 59.2281 1.80722 59.2281C0.90361 59.2281 0 58.299 0 57.37Z"
              fill="#DDDDDD"/>
        <path d="M120.18 29.7302C120.18 28.5689 121.084 27.8721 121.987 27.8721C123.117 27.8721 123.794 28.8011 123.794 29.7302C123.794 30.6593 122.891 31.5883 121.987 31.5883C121.084 31.5883 120.18 30.6593 120.18 29.7302Z"
              fill="#DDDDDD"/>
        <path d="M92.1681 31.5883C93.1662 31.5883 93.9753 30.7564 93.9753 29.7302C93.9753 28.704 93.1662 27.8721 92.1681 27.8721C91.17 27.8721 90.3608 28.704 90.3608 29.7302C90.3608 30.7564 91.17 31.5883 92.1681 31.5883Z"
              fill="#DDDDDD"/>
        <path d="M62.1231 31.5883C63.1212 31.5883 63.9304 30.7564 63.9304 29.7302C63.9304 28.704 63.1212 27.8721 62.1231 27.8721C61.125 27.8721 60.3159 28.704 60.3159 29.7302C60.3159 30.7564 61.125 31.5883 62.1231 31.5883Z"
              fill="#DDDDDD"/>
        <path d="M30.045 29.7302C30.045 28.5689 30.9487 27.8721 31.8523 27.8721C32.7559 27.8721 33.6595 28.8011 33.6595 29.7302C33.6595 30.6593 32.7559 31.5883 31.8523 31.5883C30.9487 31.5883 30.045 30.6593 30.045 29.7302Z"
              fill="#DDDDDD"/>
        <path d="M0 29.7302C0 28.5689 0.90361 27.8721 1.80722 27.8721C2.93673 27.8721 3.61444 28.8011 3.61444 29.7302C3.61444 30.6593 2.93673 31.5883 1.80722 31.5883C0.90361 31.5883 0 30.6593 0 29.7302Z"
              fill="#DDDDDD"/>
        <path d="M120.18 2.09044C120.18 0.929101 121.084 0.2323 121.987 0.2323C123.117 0.2323 123.794 1.16137 123.794 2.09044C123.794 3.25177 122.891 3.94857 121.987 3.94857C121.084 3.94857 120.18 3.0195 120.18 2.09044Z"
              fill="#DDDDDD"/>
        <path d="M90.135 2.0904C90.135 0.929068 91.0386 0 92.1681 0C93.2976 0 93.9754 0.929069 93.9754 1.85814C93.9754 3.01947 93.0717 3.71627 92.1681 3.71627C91.0386 3.94854 90.135 3.01947 90.135 2.0904Z"
              fill="#DDDDDD"/>
        <path d="M60.09 2.09038C60.09 0.929042 60.9936 0.232241 61.8972 0.232241C63.0267 -2.61217e-05 63.9303 0.929042 63.9303 2.09038C63.9303 3.25171 63.0267 3.94851 62.1231 3.94851C60.9936 3.94851 60.09 3.01945 60.09 2.09038Z"
              fill="#DDDDDD"/>
        <path d="M30.045 2.0904C30.045 0.929068 30.9487 0 32.0782 0C33.2077 0 33.8854 0.929068 33.8854 1.85814C33.8854 3.01947 32.9818 3.71627 32.0782 3.71627C31.1746 3.71627 30.045 3.01947 30.045 2.0904Z"
              fill="#DDDDDD"/>
        <path d="M0 2.0904C0 0.929069 0.90361 0 1.80722 0C2.93673 0 3.84034 0.929069 3.84034 2.0904C3.84034 3.25174 2.93673 3.94854 2.03312 3.94854C0.903609 3.94854 0 3.01947 0 2.0904Z"
              fill="#DDDDDD"/>
    </symbol>

    <symbol id="about-side" viewBox="0 0 51 273" fill="none">
        <path fill-rule="evenodd" clip-rule="evenodd"
              d="M51 273C42.858 263.256 36.261 255.106 31.209 248.549C17.4135 230.645 0 212.697 0 181.44C0 154.35 9.2889 134.643 20.0448 116.932C25.7553 107.528 36.3606 94.5376 51 79V273Z"
              fill="#009635" fill-opacity="0.3"/>
        <path fill-rule="evenodd" clip-rule="evenodd"
              d="M51 173C46.3702 164.311 42.619 157.043 39.7463 151.196C31.9018 135.23 22 119.224 22 91.3511C22 67.1939 27.2819 49.6199 33.398 33.8257C36.6452 25.4402 42.6756 13.8557 51 0V173Z"
              fill="#FF6E0A" fill-opacity="0.3"/>
    </symbol>

    <symbol id="triangle" viewBox="0 0 32 32" fill="none">
        <path opacity="0.2"
              d="M1.5 16.866C0.833332 16.4811 0.833333 15.5189 1.5 15.134L22.5 3.00962C23.1667 2.62472 24 3.10584 24 3.87564V28.1244C24 28.8942 23.1667 29.3753 22.5 28.9904L1.5 16.866Z"
              fill="#009635"/>
        <path d="M16 2L28.1244 23L3.87564 23L16 2Z" stroke="#009635" stroke-width="2"/>
    </symbol>

    <symbol id="action-bg" viewBox="0 0 816 333">
        <g clip-path="url(#clip0)">
            <path fill-rule="evenodd" clip-rule="evenodd"
                  d="M550.941 505.904C651.248 505.904 746.75 416.822 746.75 279.876C746.75 125.305 623.018 0 432.615 0C296.576 0 175.228 60.24 130.619 162.077C125.147 174.568 109.313 254.683 155.12 289.848C207.439 330.011 314.89 307.797 365.344 358.321C413.284 406.328 480.01 505.904 550.941 505.904Z"
                  fill="white" fill-opacity="0.8"/>
            <path opacity="0.5" fill-rule="evenodd" clip-rule="evenodd"
                  d="M452.914 403.983C630.647 378.946 786 278.045 786 140.766C786 77.8779 754.13 31.9755 702.166 0.694144C702.419 0 -30 0.523294 -30 0C-30 38.5489 59.1533 47.0965 127.876 153.848C189.838 250.1 84.4689 374.679 147 403.983C191.133 424.665 397.193 411.833 452.914 403.983Z"
                  fill="#009635"/>
            <path opacity="0.7" fill-rule="evenodd" clip-rule="evenodd"
                  d="M503.545 346.875C594.54 312.453 660 231.74 660 129.092C660 79.5404 646.259 36.3752 621.059 0C621.059 0 197.627 0 197.426 0.175314C171.24 37.1697 156 81.4741 156 129.092C156 226.747 218.847 311.288 308.632 346.962C308.839 347.054 503.339 346.962 503.545 346.875Z"
                  fill="#FF6E0A"/>
        </g>
        <defs>
            <clipPath id="clip0">
                <rect width="816" height="333" fill="white"/>
            </clipPath>
        </defs>
    </symbol>

    <symbol id="plus" viewBox="0 0 16 16">
        <g clip-path="url(#clip0)">
            <path d="M14.909 6.54545H9.4545V1.09091C9.4545 0.488725 8.96578 0 8.36359 0H7.63636C7.03418 0 6.54545 0.488725 6.54545 1.09091V6.54545H1.09091C0.488725 6.54545 0 7.03418 0 7.63636V8.36359C0 8.96578 0.488725 9.4545 1.09091 9.4545H6.54545V14.909C6.54545 15.5112 7.03418 16 7.63636 16H8.36359C8.96578 16 9.4545 15.5112 9.4545 14.909V9.4545H14.909C15.5112 9.4545 16 8.96578 16 8.36359V7.63636C16 7.03418 15.5112 6.54545 14.909 6.54545Z"
                  fill="#009635"/>
        </g>
        <defs>
            <clipPath id="clip0">
                <rect width="16" height="16" fill="white"/>
            </clipPath>
        </defs>
    </symbol>

    <symbol id="minus" viewBox="0 0 16 16">
        <g clip-path="url(#clip0)">
            <path d="M14.909 6.54541H9.4545H6.54545H1.09091C0.488725 6.54541 0 7.03414 0 7.63632V8.36355C0 8.96573 0.488725 9.45446 1.09091 9.45446H6.54545L9.4545 9.45449C9.39865 9.45449 10.0567 9.45449 9.4545 9.45449L14.909 9.45446C15.5112 9.45446 16 8.96573 16 8.36355V7.63632C16 7.03414 15.5112 6.54541 14.909 6.54541Z"
                  fill="#FF6E0A"/>
        </g>
        <defs>
            <clipPath id="clip0">
                <rect width="16" height="16" fill="white"/>
            </clipPath>
        </defs>
    </symbol>

    <symbol id="dates-side1" viewBox="0 0 155 449" fill="none">
        <path d="M81.673 162L74.9775 168.486L68.282 162L63 167.081L69.7327 173.567L63 180.089L68.282 185.17L74.9775 178.684L81.673 185.17L86.955 180.089L80.2223 173.567L86.955 167.081L81.673 162Z"
              fill="#009635"/>
        <path fill-rule="evenodd" clip-rule="evenodd"
              d="M154.198 391.268C98.034 384.692 52.675 321.444 52.675 250.807C52.675 197.213 100.086 99.9464 154.999 85.4492C155.039 93.0732 154.198 381.817 154.198 391.268Z"
              fill="url(#paint0_linear)" fill-opacity="0.08"/>
        <path d="M155 3C118.197 22.8089 80.0406 70.0731 60.3054 101.594C38.519 136.392 2 194.052 2 249.26C2 287.167 29.8598 350.005 73.5485 394.473C88.9261 410.125 116.077 427.3 155 446"
              stroke="url(#paint1_linear)" stroke-opacity="0.08" stroke-width="3" stroke-linecap="square"/>
        <defs>
            <linearGradient id="paint0_linear" x1="106.642" y1="349.341" x2="134.782" y2="88.2503"
                            gradientUnits="userSpaceOnUse">
                <stop stop-opacity="0.4"/>
                <stop offset="1" stop-opacity="0.15"/>
            </linearGradient>
            <linearGradient id="paint1_linear" x1="82.6935" y1="385.266" x2="122.211" y2="6.79054"
                            gradientUnits="userSpaceOnUse">
                <stop stop-opacity="0.4"/>
                <stop offset="1" stop-opacity="0.15"/>
            </linearGradient>
        </defs>
    </symbol>

    <symbol id="dotted-3" viewBox="0 0 134 142" fill="none">
        <path d="M82.4365 53.0122H131.564C132.33 53.0122 133 53.7212 133 54.5315V106.493C133 107.303 132.33 108.012 131.564 108.012H82.4365C81.6703 108.012 81 107.303 81 106.493V54.5315C81 53.7212 81.6703 53.0122 82.4365 53.0122Z"
              stroke="#FF6E0A" stroke-opacity="0.4" stroke-width="2" stroke-miterlimit="10"/>
        <g opacity="0.3">
            <path d="M120.18 140.057C120.18 138.896 121.084 138.199 121.987 138.199C123.117 138.199 123.794 139.128 123.794 140.057C123.794 141.218 122.891 141.915 121.987 141.915C121.084 142.147 120.18 141.218 120.18 140.057Z"
                  fill="#009635"/>
            <path d="M90.135 140.057C90.135 138.896 91.0386 138.199 91.9422 138.199C93.0717 138.199 93.7494 139.128 93.7494 140.057C93.7494 141.218 92.8458 141.915 91.9422 141.915C91.0386 142.147 90.135 141.218 90.135 140.057Z"
                  fill="#009635"/>
            <path d="M60.09 140.057C60.09 138.896 60.9936 138.199 61.8972 138.199C63.0267 138.199 63.7044 139.128 63.7044 140.057C63.7044 141.218 62.8008 141.915 61.8972 141.915C60.9936 142.147 60.09 141.218 60.09 140.057Z"
                  fill="#009635"/>
            <path d="M30.045 140.057C30.045 138.896 30.9486 138.199 31.8522 138.199C32.7558 138.199 33.6595 139.128 33.6595 140.057C33.6595 141.218 32.7558 141.915 31.8522 141.915C30.9486 141.915 30.045 141.218 30.045 140.057Z"
                  fill="#009635"/>
            <path d="M0 140.057C0 138.896 0.90361 138.199 1.80722 138.199C2.93673 138.199 3.61444 139.128 3.61444 140.057C3.61444 141.218 2.71083 141.915 1.80722 141.915C0.90361 142.147 0 141.218 0 140.057Z"
                  fill="#009635"/>
            <path d="M120.18 112.417C120.18 111.256 121.084 110.559 121.987 110.559C123.117 110.559 123.794 111.488 123.794 112.417C123.794 113.579 122.891 114.275 121.987 114.275C121.084 114.508 120.18 113.579 120.18 112.417Z"
                  fill="#009635"/>
            <path d="M90.135 112.417C90.135 111.256 91.0386 110.559 91.9422 110.559C93.0717 110.559 93.7494 111.488 93.7494 112.417C93.7494 113.579 92.8458 114.275 91.9422 114.275C91.0386 114.508 90.135 113.579 90.135 112.417Z"
                  fill="#009635"/>
            <path d="M60.09 112.417C60.09 111.256 60.9936 110.559 61.8972 110.559C63.0267 110.559 63.7044 111.488 63.7044 112.417C63.7044 113.579 62.8008 114.275 61.8972 114.275C60.9936 114.508 60.09 113.579 60.09 112.417Z"
                  fill="#009635"/>
            <path d="M30.045 112.417C30.045 111.256 30.9486 110.559 31.8522 110.559C32.7558 110.559 33.6595 111.488 33.6595 112.417C33.6595 113.579 32.7558 114.275 31.8522 114.275C30.9486 114.275 30.045 113.579 30.045 112.417Z"
                  fill="#009635"/>
            <path d="M0 112.417C0 111.256 0.90361 110.559 1.80722 110.559C2.93673 110.559 3.61444 111.488 3.61444 112.417C3.61444 113.579 2.71083 114.275 1.80722 114.275C0.90361 114.508 0 113.579 0 112.417Z"
                  fill="#009635"/>
            <path d="M120.18 84.7776C120.18 83.6162 121.084 82.9194 121.987 82.9194C123.117 82.9194 123.794 83.8485 123.794 84.7776C123.794 85.7066 122.891 86.6357 121.987 86.6357C121.084 86.868 120.18 85.9389 120.18 84.7776Z"
                  fill="#009635"/>
            <path d="M92.1681 86.6357C93.1662 86.6357 93.9753 85.8038 93.9753 84.7776C93.9753 83.7513 93.1662 82.9194 92.1681 82.9194C91.17 82.9194 90.3608 83.7513 90.3608 84.7776C90.3608 85.8038 91.17 86.6357 92.1681 86.6357Z"
                  fill="#009635"/>
            <path d="M62.1231 86.6357C63.1212 86.6357 63.9304 85.8038 63.9304 84.7776C63.9304 83.7513 63.1212 82.9194 62.1231 82.9194C61.125 82.9194 60.3159 83.7513 60.3159 84.7776C60.3159 85.8038 61.125 86.6357 62.1231 86.6357Z"
                  fill="#009635"/>
            <path d="M30.045 84.7776C30.045 83.6162 30.9486 82.9194 31.8522 82.9194C32.7558 82.9194 33.6595 83.8485 33.6595 84.7776C33.6595 85.7066 32.7558 86.6357 31.8522 86.6357C30.9486 86.6357 30.045 85.9389 30.045 84.7776Z"
                  fill="#009635"/>
            <path d="M0 84.7776C0 83.6162 0.90361 82.9194 1.80722 82.9194C2.93673 82.9194 3.61444 83.8485 3.61444 84.7776C3.61444 85.7066 2.93673 86.868 1.80722 86.868C0.90361 86.868 0 85.9389 0 84.7776Z"
                  fill="#009635"/>
            <path d="M120.18 57.3699C120.18 56.2085 121.084 55.5117 121.987 55.5117C123.117 55.5117 123.794 56.4408 123.794 57.3699C123.794 58.2989 122.891 59.228 121.987 59.228C121.084 59.228 120.18 58.2989 120.18 57.3699Z"
                  fill="#009635"/>
            <path d="M92.1681 59.228C93.1662 59.228 93.9753 58.3961 93.9753 57.3699C93.9753 56.3436 93.1662 55.5117 92.1681 55.5117C91.17 55.5117 90.3608 56.3436 90.3608 57.3699C90.3608 58.3961 91.17 59.228 92.1681 59.228Z"
                  fill="#009635"/>
            <path d="M62.1231 59.228C63.1212 59.228 63.9304 58.3961 63.9304 57.3699C63.9304 56.3436 63.1212 55.5117 62.1231 55.5117C61.125 55.5117 60.3159 56.3436 60.3159 57.3699C60.3159 58.3961 61.125 59.228 62.1231 59.228Z"
                  fill="#009635"/>
            <path d="M30.045 57.3699C30.045 56.2085 30.9486 55.5117 31.8522 55.5117C32.7558 55.5117 33.6595 56.4408 33.6595 57.3699C33.6595 58.2989 32.7558 59.228 31.8522 59.228C30.9486 59.228 30.045 58.2989 30.045 57.3699Z"
                  fill="#009635"/>
            <path d="M0 57.3699C0 56.2085 0.90361 55.5117 1.80722 55.5117C2.93673 55.5117 3.61444 56.4408 3.61444 57.3699C3.61444 58.2989 2.93673 59.228 1.80722 59.228C0.90361 59.228 0 58.2989 0 57.3699Z"
                  fill="#009635"/>
            <path d="M120.18 29.7302C120.18 28.5689 121.084 27.8721 121.987 27.8721C123.117 27.8721 123.794 28.8011 123.794 29.7302C123.794 30.6593 122.891 31.5883 121.987 31.5883C121.084 31.5883 120.18 30.6593 120.18 29.7302Z"
                  fill="#009635"/>
            <path d="M92.1681 31.5883C93.1662 31.5883 93.9753 30.7564 93.9753 29.7302C93.9753 28.704 93.1662 27.8721 92.1681 27.8721C91.17 27.8721 90.3608 28.704 90.3608 29.7302C90.3608 30.7564 91.17 31.5883 92.1681 31.5883Z"
                  fill="#009635"/>
            <path d="M62.1231 31.5883C63.1212 31.5883 63.9304 30.7564 63.9304 29.7302C63.9304 28.704 63.1212 27.8721 62.1231 27.8721C61.125 27.8721 60.3159 28.704 60.3159 29.7302C60.3159 30.7564 61.125 31.5883 62.1231 31.5883Z"
                  fill="#009635"/>
            <path d="M30.045 29.7302C30.045 28.5689 30.9486 27.8721 31.8522 27.8721C32.7558 27.8721 33.6595 28.8011 33.6595 29.7302C33.6595 30.6593 32.7558 31.5883 31.8522 31.5883C30.9486 31.5883 30.045 30.6593 30.045 29.7302Z"
                  fill="#009635"/>
            <path d="M0 29.7302C0 28.5689 0.90361 27.8721 1.80722 27.8721C2.93673 27.8721 3.61444 28.8011 3.61444 29.7302C3.61444 30.6593 2.93673 31.5883 1.80722 31.5883C0.90361 31.5883 0 30.6593 0 29.7302Z"
                  fill="#009635"/>
            <path d="M120.18 2.09056C120.18 0.929223 121.084 0.232422 121.987 0.232422C123.117 0.232422 123.794 1.16149 123.794 2.09056C123.794 3.25189 122.891 3.94869 121.987 3.94869C121.084 3.94869 120.18 3.01963 120.18 2.09056Z"
                  fill="#009635"/>
            <path d="M90.135 2.0904C90.135 0.929068 91.0386 0 92.1681 0C93.2976 0 93.9753 0.929069 93.9753 1.85814C93.9753 3.01947 93.0717 3.71627 92.1681 3.71627C91.0386 3.94854 90.135 3.01947 90.135 2.0904Z"
                  fill="#009635"/>
            <path d="M60.09 2.09026C60.09 0.92892 60.9936 0.232119 61.8972 0.232119C63.0267 -0.000148192 63.9303 0.92892 63.9303 2.09026C63.9303 3.25159 63.0267 3.94839 62.1231 3.94839C60.9936 3.94839 60.09 3.01932 60.09 2.09026Z"
                  fill="#009635"/>
            <path d="M30.045 2.0904C30.045 0.929068 30.9486 0 32.0781 0C33.2076 0 33.8854 0.929068 33.8854 1.85814C33.8854 3.01947 32.9817 3.71627 32.0781 3.71627C31.1745 3.71627 30.045 3.01947 30.045 2.0904Z"
                  fill="#009635"/>
            <path d="M0 2.0904C0 0.929069 0.90361 0 1.80722 0C2.93673 0 3.84034 0.929069 3.84034 2.0904C3.84034 3.25174 2.93673 3.94854 2.03312 3.94854C0.903609 3.94854 0 3.01947 0 2.0904Z"
                  fill="#009635"/>
        </g>
    </symbol>

    <symbol id="mobile-payment" viewBox="0 0 32 32">
        <path fill-rule="evenodd" clip-rule="evenodd"
              d="M29.136 8.30179C28.8181 7.98372 28.3784 7.78618 27.8943 7.78618H20.3358V3.56752C20.3358 2.114 19.1524 0.930664 17.699 0.930664H4.69343C3.24003 0.930664 2.05658 2.114 2.05658 3.56752V28.4001C2.05658 29.7902 3.19426 30.9307 4.58698 30.9307H17.8052C19.1981 30.9307 20.3355 29.7932 20.3355 28.4001V22.3175H27.8941C28.3784 22.3175 28.8181 22.1199 29.136 21.8018C29.4545 21.4836 29.6519 21.044 29.6519 20.5597V9.54404C29.6519 9.05966 29.4546 8.6201 29.136 8.30179ZM7.59132 2.68853H14.7984V3.69181C14.7984 4.10484 14.4572 4.44616 14.0443 4.44616H8.34578C7.93252 4.44616 7.59167 4.10484 7.59167 3.69181V2.68853H7.59132ZM18.5777 28.4001C18.5777 28.8228 18.2276 29.1729 17.8052 29.1729H4.58698C4.16573 29.1729 3.81456 28.8278 3.81456 28.4001V25.2525C4.29015 25.5105 4.83404 25.6573 5.41092 25.6573H16.9792C17.5566 25.6573 18.1017 25.5099 18.5777 25.2511V28.4001ZM16.9792 23.8994H5.41092C4.96773 23.8994 4.56703 23.7217 4.27829 23.4347C4.00987 23.1682 3.83651 22.8061 3.81456 22.4046V3.56752C3.81456 3.08442 4.21057 2.68853 4.69343 2.68853H5.83369V3.69181C5.83369 5.07538 6.96245 6.20402 8.34578 6.20402H14.0443C15.4276 6.20402 16.5563 5.07538 16.5563 3.69181V2.68853H17.6988C18.1817 2.68853 18.5777 3.08442 18.5777 3.56752V7.78618H10.3747C9.89038 7.78618 9.45048 7.98372 9.1324 8.30179C8.81421 8.6201 8.61667 9.05966 8.61667 9.54404V20.5597C8.61667 21.044 8.81421 21.4836 9.1324 21.8018C9.45048 22.1199 9.89038 22.3175 10.3747 22.3175H18.5777C18.5777 23.1953 17.8595 23.8994 16.9792 23.8994ZM27.8941 20.5594C27.8943 20.5597 27.8945 20.5597 27.8941 20.5597C27.8941 20.56 27.8941 20.5599 27.8941 20.5597H10.3748C10.3748 20.23 10.3747 12.7187 10.3748 9.54404C14.2542 9.54404 27.8945 9.54404 27.8941 9.54416V20.5594Z"
              fill="white"/>
        <path fill-rule="evenodd" clip-rule="evenodd"
              d="M11.1963 26.5654C10.7121 26.5654 10.3173 26.9601 10.3173 27.4443C10.3173 27.9283 10.7121 28.3233 11.1963 28.3233C11.6804 28.3233 12.0751 27.9283 12.0751 27.4443C12.0751 26.9601 11.6804 26.5654 11.1963 26.5654Z"
              fill="white"/>
        <path fill-rule="evenodd" clip-rule="evenodd"
              d="M13.0113 14.5245H13.48C13.9655 14.5245 14.3589 14.1308 14.3589 13.6455C14.3589 13.16 13.9655 12.7666 13.48 12.7666H13.0113C12.526 12.7666 12.1324 13.16 12.1324 13.6455C12.1324 14.1308 12.526 14.5245 13.0113 14.5245Z"
              fill="white"/>
        <path fill-rule="evenodd" clip-rule="evenodd"
              d="M13.0113 18.04H21.566C22.0515 18.04 22.4448 17.6466 22.4448 17.1611C22.4448 16.6759 22.0515 16.2822 21.566 16.2822H13.0113C12.526 16.2822 12.1324 16.6759 12.1324 17.1611C12.1324 17.6466 12.526 18.04 13.0113 18.04Z"
              fill="white"/>
        <path fill-rule="evenodd" clip-rule="evenodd"
              d="M16.9958 14.5245H17.4644C17.9499 14.5245 18.3435 14.1308 18.3435 13.6455C18.3435 13.16 17.9499 12.7666 17.4644 12.7666H16.9958C16.5105 12.7666 16.1167 13.16 16.1167 13.6455C16.1167 14.1308 16.5105 14.5245 16.9958 14.5245Z"
              fill="white"/>
        <path fill-rule="evenodd" clip-rule="evenodd"
              d="M20.9801 14.5245H21.4488C21.9342 14.5245 22.3277 14.1308 22.3277 13.6455C22.3277 13.16 21.9342 12.7666 21.4488 12.7666H20.9801C20.4949 12.7666 20.1012 13.16 20.1012 13.6455C20.1012 14.1308 20.4949 14.5245 20.9801 14.5245Z"
              fill="white"/>
        <path fill-rule="evenodd" clip-rule="evenodd"
              d="M24.9644 14.5245H25.4331C25.9187 14.5245 26.3121 14.1308 26.3121 13.6455C26.3121 13.16 25.9187 12.7666 25.4331 12.7666H24.9644C24.4792 12.7666 24.0854 13.16 24.0854 13.6455C24.0854 14.1308 24.4792 14.5245 24.9644 14.5245Z"
              fill="white"/>
    </symbol>

    <symbol id="location" viewBox="0 0 32 32">
        <path d="M16.0001 15.3872C18.0678 15.3872 19.75 13.705 19.75 11.6372C19.75 9.56946 18.0678 7.88721 16.0001 7.88721C13.9323 7.88721 12.25 9.56946 12.25 11.6372C12.25 13.705 13.9323 15.3872 16.0001 15.3872ZM16.0001 9.76221C17.0339 9.76221 17.875 10.6033 17.875 11.6372C17.875 12.6711 17.0339 13.5122 16.0001 13.5122C14.9662 13.5122 14.125 12.6711 14.125 11.6372C14.125 10.6033 14.9662 9.76221 16.0001 9.76221Z"
              fill="white"/>
        <path d="M27.9288 21.5625H21.6544C24.5842 18.7659 27.25 16.0247 27.25 11.25C27.25 4.81675 22.4194 0 16.0001 0C9.56789 0 4.75001 4.83106 4.75001 11.25C4.75001 16.0247 7.41589 18.7659 10.3458 21.5625H4.0712L0.642761 32H31.3573L27.9288 21.5625ZM6.62501 11.25C6.62501 5.81775 10.5678 1.875 16.0001 1.875C21.4323 1.875 25.375 5.81775 25.375 11.25C25.375 17.3274 20.2453 19.4799 16.0001 24.7139C14.7244 23.1411 13.36 21.8427 12.0333 20.5804C9.01164 17.7054 6.62501 15.4344 6.62501 11.25ZM3.99182 27.8125H10.75V25.9375H4.6077L5.42889 23.4375H12.25V23.3954C14.7404 25.8649 15.4141 27.1027 16.0001 27.8407C16.6006 27.0844 17.2524 25.8724 19.75 23.3955V23.4375H26.5712L27.3924 25.9375H21.25V27.8125H28.0082L28.7678 30.125H3.23226L3.99182 27.8125Z"
              fill="white"/>
    </symbol>

    <symbol id="burger" viewBox="0 0 24 24">
        <rect y="2.25" width="24" height="3" rx="1.5" fill="#FF6E0A"/>
        <rect y="10.5" width="24" height="3" rx="1.5" fill="#FF6E0A"/>
        <rect y="18.75" width="24" height="3" rx="1.5" fill="#FF6E0A"/>
    </symbol>

    <symbol id="line" viewBox="0 0 2 1831">
        <path d="M1 0.5V1830.5" stroke="#B1DDC1" stroke-linecap="square" stroke-dasharray="20 20"/>
    </symbol>
</svg>